<?xml version="1.0" standalone="no"?>
<!DOCTYPE svg PUBLIC "-//W3C//DTD SVG 1.1//EN" "http://www.w3.org/Graphics/SVG/1.1/DTD/svg11.dtd" >
<svg xmlns="http://www.w3.org/2000/svg">
<metadata>Generated by IcoMoon</metadata>
<defs>
<font id="compass-iconset" horiz-adv-x="1024">
<font-face units-per-em="1024" ascent="960" descent="-64" />
<missing-glyph horiz-adv-x="1024" />
<glyph unicode="&#x20;" horiz-adv-x="512" d="" />
<glyph unicode="&#xe900;" glyph-name="mailbox-agreement" d="M749.748 758.005l-84.982-81.843 248.163-238.962 84.981 81.834-248.162 238.971zM1025.242 509.813l-103.434-99.604c-4.957-4.773-12.8-4.773-17.757 0l-266.616 256.731c-5.229 5.035-5.229 13.405-0.001 18.44l103.434 99.614c4.957 4.774 12.801 4.774 17.758 0l266.616-256.741c5.229-5.035 5.229-13.405 0-18.44zM637.434 666.943c-5.092 4.904-5.245 13.007-0.341 18.099s13.007 5.245 18.099 0.341l211.54-203.705c5.229-5.035 5.229-13.405 0-18.44l-134.531-129.548c-5.092-4.904-13.195-4.751-18.099 0.341s-4.751 13.195 0.341 18.099l124.956 120.328-201.965 194.485zM928.529 536.734c-9.529 9.176-25.164 9.176-34.686 0.006-9.248-8.912-9.248-23.159-0.007-32.071 9.526-9.167 25.166-9.167 34.69-0.003 9.264 8.921 9.264 23.157 0.003 32.068zM946.279 486.223c-19.438-18.705-50.756-18.705-70.204 0.010-19.692 18.99-19.692 49.962 0.007 68.945 19.439 18.719 50.76 18.719 70.199 0.002 19.723-18.981 19.723-49.962-0.002-68.956zM-3.658 509.813c-5.229 5.035-5.229 13.405 0 18.44l266.616 256.741c4.957 4.773 12.801 4.773 17.758 0l103.434-99.614c5.228-5.035 5.228-13.405-0.001-18.44l-266.616-256.731c-4.957-4.773-12.8-4.773-17.757 0l-103.434 99.604zM23.674 519.034l84.981-81.834 248.163 238.962-84.982 81.843-248.162-238.971zM145.505 555.174c19.695-18.98 19.695-49.952-0.007-68.951-19.438-18.705-50.756-18.705-70.197 0.003-19.721 18.991-19.722 49.972 0.002 68.953 19.439 18.718 50.76 18.717 70.202-0.005zM93.059 536.737c-9.264-8.914-9.264-23.15-0.003-32.068 9.526-9.167 25.166-9.167 34.683-0.010 9.252 8.922 9.252 23.168 0.007 32.077-9.525 9.173-25.161 9.173-34.686 0zM572.73 197.398c9.515-9.169 25.147-9.169 34.679 0.010 9.487 9.123 9.8 24.117 0.78 32.796-0.002 0.002 5.915 6.15 17.751 18.447 9.253-8.91 25.864-8.509 35.668 0.939 9.248 8.912 9.248 23.156 0 32.067-12.289 11.843 5.475 30.276 17.764 18.434 9.515-9.17 25.151-9.17 34.683 0.003 9.254 8.911 9.254 23.15 0 32.061l-212.146 204.278c-5.092 4.903-5.245 13.006-0.342 18.099s13.006 5.245 18.099 0.342l212.146-204.279c19.711-18.981 19.711-49.961-0.003-68.944-10.39-9.998-24.167-14.655-37.709-13.97 0.57-13.165-4.339-26.513-14.727-36.524-10.624-10.238-25.027-15.137-39.072-14.472 0.599-13.605-4.51-27.5-15.141-37.722-10.384-10-24.161-14.658-37.703-13.974 0.57-13.166-4.34-26.518-14.73-36.538-19.439-18.719-50.759-18.719-70.208-0.003-5.094 4.902-5.25 13.005-0.348 18.099s13.005 5.25 18.099 0.348c9.536-9.176 25.174-9.176 34.693-0.010 9.252 8.922 9.252 23.168 0.003 32.081l17.764 18.434zM509.796 669.452l9.874-9.509c5.092-4.904 5.245-13.007 0.341-18.099s-13.007-5.245-18.099-0.341l-9.874 9.509c-25.178 24.246-66.183 24.246-91.361 0-4.957-4.773-12.8-4.773-17.757 0l-7.657 7.373-193.081-185.93 125.958-121.284c5.092-4.903 5.246-13.006 0.342-18.099s-13.006-5.246-18.099-0.342l-135.534 130.504c-5.229 5.035-5.229 13.406 0 18.441l211.54 203.705c4.96 4.776 12.809 4.773 17.765-0.007l8.258-7.962c35.178 25.584 85.306 22.931 117.384-7.959zM679.365 300.090c5.092-4.904 5.244-13.007 0.341-18.099s-13.007-5.244-18.099-0.341l-125.085 120.462c-5.092 4.904-5.244 13.007-0.341 18.099s13.007 5.244 18.099 0.341l125.085-120.462zM625.919 248.677c5.107-4.888 5.284-12.991 0.395-18.098s-12.991-5.284-18.098-0.395l-125.461 120.1c-5.107 4.888-5.284 12.991-0.395 18.098s12.991 5.284 18.098 0.395l125.461-120.1zM572.722 197.398c5.092-4.903 5.246-13.006 0.342-18.099s-13.006-5.246-18.099-0.342l-125.095 120.452c-5.092 4.903-5.246 13.006-0.342 18.099s13.006 5.246 18.099 0.342l125.095-120.452zM307.53 332.164c-9.252-8.922-9.252-23.168-0.013-32.071 9.537-9.171 25.18-9.171 34.703-0.006 9.254 8.911 9.254 23.151-0.002 32.073-9.526 9.172-25.163 9.171-34.688 0.005zM359.977 350.597c19.71-18.994 19.71-49.971-0.003-68.955-19.438-18.704-50.753-18.704-70.211 0.006-19.695 18.98-19.695 49.952 0.007 68.951 19.449 18.715 50.769 18.715 70.208-0.003zM394.662 281.647c-9.529 9.176-25.164 9.176-34.686 0.006-9.248-8.912-9.248-23.156-0.003-32.064 9.525-9.173 25.161-9.173 34.69 0.003 9.26 8.91 9.26 23.144 0 32.054zM412.416 231.149c-19.439-18.719-50.762-18.719-70.204 0.003-19.696 18.98-19.696 49.955 0.003 68.938 19.439 18.719 50.76 18.719 70.199 0.002 19.724-18.982 19.723-49.965 0.002-68.943zM448.863 229.453c-9.528 9.182-25.158 9.182-34.686 0-9.254-8.911-9.254-23.15-0.003-32.058 9.526-9.167 25.166-9.167 34.69-0.003 9.254 8.911 9.254 23.15 0 32.061zM466.617 178.949c-19.438-18.705-50.756-18.705-70.197 0.003-19.711 18.981-19.711 49.961-0.003 68.938 19.439 18.733 50.766 18.733 70.206 0.002 19.709-18.981 19.709-49.959-0.005-68.943zM466.618 178.961c-9.248-8.912-9.248-23.159-0.007-32.071 9.527-9.167 25.17-9.167 34.697-0.006 9.257 8.921 9.258 23.161 0.005 32.073-9.536 9.175-25.173 9.174-34.695 0.005zM519.066 197.401c19.714-18.983 19.714-49.961-0.003-68.961-19.448-18.701-50.763-18.701-70.211 0.013-19.692 18.99-19.692 49.962 0.007 68.945 19.439 18.719 50.759 18.719 70.208 0.003zM630.773 678.965c5.090 4.906 13.193 4.758 18.099-0.332s4.758-13.193-0.332-18.099l-9.874-9.519c-4.956-4.778-12.803-4.78-17.762-0.005-25.178 24.245-66.182 24.245-91.351 0l-124.183-119.573c-9.842-9.484-9.842-24.629 0-34.1 10.1-9.733 26.684-9.733 36.794 0.003l69.632 67.053c4.957 4.774 12.802 4.773 17.759-0.002 25.167-24.244 66.172-24.244 91.349 0.002 5.092 4.904 13.195 4.751 18.099-0.341s4.751-13.195-0.341-18.099c-32.077-30.889-82.204-33.543-117.374-7.96l-61.366-59.093c-20.025-19.283-52.3-19.283-72.308-0.003-20.299 19.534-20.299 51.419-0.003 70.977l124.184 119.575c32.067 30.89 82.192 33.544 117.37 7.964l1.609 1.551z" />
<glyph unicode="&#xe901;" glyph-name="mailbox-report" horiz-adv-x="1091" d="M1090.547 942.976h0.258v-874.914c0-72.995-59.712-132.062-133.094-132.062h-818.297c-0.516 0-1.161 0.129-1.677 0.129-1.548-0.129-2.966-0.129-4.514-0.129-72.866 0-132.062 59.196-132.062 132.062v82.539c0 4.385 1.677 8.641 4.772 11.736l82.539 82.539c6.448 6.448 16.895 6.448 23.343 0l54.295-54.295 54.295 54.295c3.224 3.224 7.48 4.772 11.736 4.772v693.328c0 9.157 7.351 16.508 16.508 16.508h825.39c9.157 0 16.508-7.351 16.508-16.508zM132.965-30.984c54.682 0 99.047 44.365 99.047 99.047v141.735l-54.295-54.295c-6.448-6.448-16.895-6.448-23.343 0l-54.295 54.295-66.031-66.031v-75.704c0-54.682 44.365-99.047 98.918-99.047zM1057.531 68.062v858.406h-792.375v-858.406c0-39.464-17.282-74.801-44.752-99.047h737.048c55.327 0 100.079 44.365 100.079 99.047zM397.219 365.203h33.016v-198.094h-33.016v198.094zM529.282 299.172h33.016v-132.062h-33.016v132.062zM661.344 464.25h33.016v-297.141h-33.016v297.141zM793.407 431.234h33.016v-264.125h-33.016v264.125zM925.469 596.312h33.016v-429.203h-33.016v429.203zM403.796 517.126c-7.222 5.417-8.77 15.734-3.224 22.956 5.417 7.351 15.734 8.77 23.085 3.353l118.134-88.472 128.838 193.193 132.965-33.274 125.485 156.824c5.675 7.093 16.121 8.254 23.214 2.579s8.254-16.121 2.579-23.214l-138.769-173.332-131.031 32.758-135.287-202.865-145.991 109.493z" />
<glyph unicode="&#xe902;" glyph-name="action-info-outline" d="M512 896c247.424 0 448-200.576 448-448s-200.576-448-448-448c-247.424 0-448 200.576-448 448s200.576 448 448 448zM512 840c-216.496 0-392-175.504-392-392s175.504-392 392-392c216.496 0 392 175.504 392 392s-175.504 392-392 392zM512.395 160c-9.481 0-17.251 2.677-23.309 8.032s-9.087 12.876-9.087 22.567v322.805c0 9.689 3.029 17.211 9.087 22.565s13.827 8.032 23.309 8.032c9.481 0 17.119-2.677 22.913-8.032s8.691-12.876 8.691-22.565v-322.805c0-10.199-2.897-17.849-8.691-22.948s-13.432-7.649-22.913-7.649zM512 608c-14.221 0-25.779 4.436-34.667 13.307s-13.333 20.593-13.333 35.168c0 13.941 4.444 25.347 13.333 34.219s20.444 13.307 34.667 13.307c14.221 0 25.779-4.436 34.667-13.307s13.333-20.277 13.333-34.219c0-14.575-4.444-26.297-13.333-35.168s-20.444-13.307-34.667-13.307z" />
<glyph unicode="&#xe903;" glyph-name="action-cancel" d="M937.373 918.627c12.497 12.497 32.758 12.497 45.255 0s12.497-32.758 0-45.255l-425.373-425.373 425.373-425.373c12.497-12.497 12.497-32.758 0-45.255s-32.758-12.497-45.255 0l-425.373 425.373-425.373-425.373c-12.497-12.497-32.758-12.497-45.255 0s-12.497 32.758 0 45.255l425.373 425.373-425.373 425.373c-12.497 12.497-12.497 32.758 0 45.255s32.758 12.497 45.255 0l425.373-425.373 425.373 425.373z" />
<glyph unicode="&#xe904;" glyph-name="action-add" d="M512-64c-282.77 0-512 229.23-512 512s229.23 512 512 512c282.77 0 512-229.23 512-512s-229.23-512-512-512zM544 480v224c0 17.673-14.327 32-32 32s-32-14.327-32-32v-224h-224c-17.673 0-32-14.327-32-32s14.327-32 32-32h224v-224c0-17.673 14.327-32 32-32s32 14.327 32 32v224h224c17.673 0 32 14.327 32 32s-14.327 32-32 32h-224z" />
<glyph unicode="&#xe905;" glyph-name="action-complete" d="M512-64.032c282.787 0 512.032 229.245 512.032 512.032s-229.245 512.032-512.032 512.032c-282.787 0-512.032-229.245-512.032-512.032s229.245-512.032 512.032-512.032zM512 5.792c-244.225 0-442.208 197.983-442.208 442.208s197.983 442.208 442.208 442.208c244.225 0 442.208-197.983 442.208-442.208s-197.983-442.208-442.208-442.208zM310.726 427.367c-6.236 5.814-15.818 7.758-24.383 4.654s-14.678-10.735-15.837-19.771c-1.159-9.036 2.829-17.963 10.334-23.128l162.418-129.961c10.167-8.005 24.729-6.756 33.344 2.815l260.64 293.156c4.303 4.759 6.538 11.112 6.161 17.583s-3.336 12.521-8.213 16.791c-4.714 4.263-11.066 6.499-17.538 6.121s-12.521-3.336-16.791-8.213l-245.283-275.943-144.853 115.895z" />
<glyph unicode="&#xe906;" glyph-name="action-hint-glow" horiz-adv-x="853" d="M221.696 379.52c-18.571 32.064-29.576 70.521-29.696 111.539v0.035c0 127.019 109.525 234.24 233.387 234.24 124.203 0 235.947-107.605 235.947-234.24-0.096-41.567-11.414-80.47-31.082-113.867l0.575 1.056 0.256 0.427c-5.344-9.384-10.677-17.371-16.504-24.958l0.376 0.51c-27.733-45.44-55.723-111.019-82.773-190.464-2.946-8.479-10.865-14.457-20.18-14.464h-170.668c-9.307 0.001-17.221 5.96-20.136 14.272l-0.046 0.15c-27.221 79.787-55.381 145.621-81.963 189.397-5.562 7.215-11.047 15.366-16.005 23.862l-0.592 1.098-0.853 1.408zM594.389 400.512c15.829 27.947 24.277 58.88 24.277 90.581 0 102.741-92.288 191.573-193.28 191.573-100.48 0-190.72-88.32-190.72-191.573 0-31.701 8.448-62.592 22.869-88.576 0.64-0.853 0.64-0.853 1.92-2.944 4.181-7.253 8.704-14.080 14.933-22.4 27.989-45.909 55.552-109.184 82.133-185.173h140.245c26.453 75.733 53.931 138.837 82.987 186.283 4.879 6.394 9.716 13.639 14.096 21.182l0.538 1.004zM341.333 85.333h170.667c11.782 0 21.333 9.551 21.333 21.333s-9.551 21.333-21.333 21.333v0h-170.667c-11.782 0-21.333-9.551-21.333-21.333s9.551-21.333 21.333-21.333v0zM352 21.333h147.243c11.782 0 21.333 9.551 21.333 21.333s-9.551 21.333-21.333 21.333v0h-147.243c-11.782 0-21.333-9.551-21.333-21.333s9.551-21.333 21.333-21.333v0zM362.667-42.667h128c11.782 0 21.333 9.551 21.333 21.333s-9.551 21.333-21.333 21.333v0h-128c-11.782 0-21.333-9.551-21.333-21.333s9.551-21.333 21.333-21.333v0zM405.333 917.333v-128c0-11.782 9.551-21.333 21.333-21.333s21.333 9.551 21.333 21.333v0 128c0 11.782-9.551 21.333-21.333 21.333s-21.333-9.551-21.333-21.333v0zM46.507 685.525l113.493-65.536c3.089-1.841 6.812-2.929 10.789-2.929 11.782 0 21.333 9.551 21.333 21.333 0 7.904-4.299 14.805-10.686 18.491l-0.103 0.055-113.493 65.536c-3.089 1.841-6.812 2.929-10.789 2.929-11.782 0-21.333-9.551-21.333-21.333 0-7.904 4.299-14.805 10.686-18.491l0.103-0.055zM194.859 849.493l66.133-114.56c3.759-6.432 10.631-10.685 18.496-10.685 11.792 0 21.351 9.559 21.351 21.351 0 3.927-1.060 7.606-2.91 10.768l0.055-0.101-66.176 114.56c-3.741 6.49-10.641 10.789-18.545 10.789-11.782 0-21.333-9.551-21.333-21.333 0-3.977 1.088-7.7 2.984-10.887l-0.054 0.098zM621.525 870.827l-65.365-113.195c-1.841-3.089-2.929-6.812-2.929-10.789 0-11.782 9.551-21.333 21.333-21.333 7.904 0 14.805 4.299 18.491 10.686l0.055 0.103 65.365 113.195c1.841 3.089 2.929 6.812 2.929 10.789 0 11.782-9.551 21.333-21.333 21.333-7.904 0-14.805-4.299-18.491-10.686l-0.055-0.103zM785.493 722.475l-114.517-66.133c-6.49-3.741-10.789-10.641-10.789-18.545 0-11.782 9.551-21.333 21.333-21.333 3.977 0 7.7 1.088 10.887 2.984l-0.098-0.054 114.517 66.133c6.49 3.741 10.789 10.641 10.789 18.545 0 11.782-9.551 21.333-21.333 21.333-3.977 0-7.7-1.088-10.887-2.984l0.098 0.054z" />
<glyph unicode="&#xe907;" glyph-name="action-edit" d="M85.333 0h853.333c11.782 0 21.333 9.551 21.333 21.333s-9.551 21.333-21.333 21.333h-853.333c-11.782 0-21.333-9.551-21.333-21.333s9.551-21.333 21.333-21.333zM141.492 147.144c-3.726-11.177 2.315-23.259 13.492-26.985 4.379-1.46 9.113-1.46 13.492 0l215.523 71.841 469.333 469.333c47.128 47.128 47.128 123.538 0 170.667s-123.538 47.128-170.667 0l-469.333-469.333-71.841-215.523zM250.625 339.619l462.211 462.211c30.466 30.466 79.861 30.466 110.327 0s30.466-79.861 0-110.327l-462.211-462.211-165.49-55.163 55.163 165.49zM609.83 746.667l158.17-158.17 30.17 30.17-158.17 158.17zM218.29 327.54l130.785-130.785 50.010 10.33-170.667 170.667z" />
<glyph unicode="&#xe908;" glyph-name="action-tick" d="M512 960c282.77 0 512-229.23 512-512-0.297-282.647-229.353-511.703-512-512-282.77 0-512 229.23-512 512s229.23 512 512 512zM786.977 645.048c-10.661 10.336-27.604 10.336-38.265 0v0l-291.032-303.427-155.217 161.684c-6.739 6.932-16.664 9.742-26.037 7.371s-16.769-9.561-19.402-18.863c-2.633-9.302-0.104-19.303 6.635-26.234v0l174.619-181.625c5.141-5.159 12.119-8.066 19.402-8.084 6.98 0.215 13.661 2.887 18.863 7.545v0l310.434 323.368c5.101 5.060 7.971 11.947 7.971 19.133s-2.87 14.073-7.971 19.133z" />
<glyph unicode="&#xe909;" glyph-name="action-clear" d="M937.373 918.627c12.497 12.497 32.758 12.497 45.255 0s12.497-32.758 0-45.255l-425.373-425.373 425.373-425.373c12.497-12.497 12.497-32.758 0-45.255s-32.758-12.497-45.255 0l-425.373 425.373-425.373-425.373c-12.497-12.497-32.758-12.497-45.255 0s-12.497 32.758 0 45.255l425.373 425.373-425.373 425.373c-12.497 12.497-12.497 32.758 0 45.255s32.758 12.497 45.255 0l425.373-425.373 425.373 425.373z" />
<glyph unicode="&#xe90a;" glyph-name="mailbox-statement" d="M281.6 832v-665.6c0-7.069-5.731-12.8-12.8-12.8s-12.8 5.731-12.8 12.8v678.4c0 7.069 5.731 12.8 12.8 12.8h640c7.069 0 12.8-5.731 12.8-12.8v-678.4c0-7.069-5.731-12.8-12.8-12.8s-12.8 5.731-12.8 12.8v665.6h-614.4zM102.4 166.4c0-42.41 34.39-76.8 76.8-76.8s76.8 34.39 76.8 76.8c0 7.069 5.731 12.8 12.8 12.8s12.8-5.731 12.8-12.8c0-56.548-45.852-102.4-102.4-102.4s-102.4 45.852-102.4 102.4v64c0 3.395 1.349 6.651 3.749 9.051l64 64c4.999 4.999 13.103 4.999 18.102 0l42.149-42.149 42.149 42.149c4.999 4.999 13.103 4.999 18.102 0s4.999-13.103 0-18.102l-51.2-51.2c-4.999-4.999-13.103-4.999-18.102 0l-42.149 42.149-51.2-51.2v-58.698zM896 166.4c0 7.069 5.731 12.8 12.8 12.8s12.8-5.731 12.8-12.8c0-56.57-46.226-102.4-103.168-102.4h-634.451c-7.069 0-12.8 5.731-12.8 12.8s5.731 12.8 12.8 12.8h634.451c42.853 0 77.568 34.418 77.568 76.8zM384 652.8v25.6h435.2v-25.6zM384 576v25.6h435.2v-25.6zM384 499.2v25.6h435.2v-25.6zM384 422.4v25.6h435.2v-25.6z" />
<glyph unicode="&#xe90b;" glyph-name="navigation-mailbox" d="M593.679 393.893l302.321-250.561v-53.732h-768v53.732l302.321 250.561c47.375 39.264 115.984 39.264 163.359 0zM153.6 115.2h716.8v16.099l-293.057 242.883c-37.9 31.411-92.787 31.411-130.687 0l-293.057-242.883v-16.099zM896 569.52v-479.92h-768v479.92l300.788 257.341c47.905 40.985 118.52 40.985 166.425 0l300.788-257.341zM578.57 807.409c-38.324 32.788-94.816 32.788-133.14 0l-291.83-249.677v-442.532h716.8v442.532l-291.83 249.677zM145.604 540.405c-5.52 4.416-6.415 12.471-1.999 17.991s12.471 6.415 17.991 1.999l239.883-191.906c5.52-4.416 6.415-12.471 1.999-17.991s-12.471-6.415-17.991-1.999l-239.883 191.906zM887.879 540.405c5.52 4.416 6.415 12.471 1.999 17.991s-12.471 6.415-17.991 1.999l-239.883-191.906c-5.52-4.416-6.415-12.471-1.999-17.991s12.471-6.415 17.991-1.999l239.883 191.906zM256 678.4v-204.8h-25.6v230.4h563.2v-230.4h-25.6v204.8h-512zM345.6 550.4c-7.069 0-12.8 5.731-12.8 12.8s5.731 12.8 12.8 12.8h333.783c7.069 0 12.8-5.731 12.8-12.8s-5.731-12.8-12.8-12.8h-333.783zM345.6 473.6c-7.069 0-12.8 5.731-12.8 12.8s5.731 12.8 12.8 12.8h333.783c7.069 0 12.8-5.731 12.8-12.8s-5.731-12.8-12.8-12.8h-333.783z" />
<glyph unicode="&#xe90c;" glyph-name="navigation-home" d="M243.2 768.010v-220.211c0-7.069-5.731-12.8-12.8-12.8s-12.8 5.731-12.8 12.8v233.011c0 7.069 5.731 12.8 12.8 12.8h128c7.069 0 12.8-5.731 12.8-12.8v-125.952c0-7.069-5.731-12.8-12.8-12.8s-12.8 5.731-12.8 12.8v113.152h-102.4zM597.33 38.41c-0.171-0.007-0.344-0.010-0.517-0.010h-170.061c-0.173 0-0.345 0.003-0.517 0.010h-195.144c-7.069 0-12.8 5.731-12.8 12.8v381.44h-103.091c-11.928 0-17.372 14.877-8.262 22.576l396.8 335.36c4.77 4.032 11.754 4.032 16.525 0l396.8-335.36c9.11-7.699 3.665-22.576-8.262-22.576h-103.526v-381.44c0-7.069-5.731-12.8-12.8-12.8h-195.144zM609.613 64.010h170.061v381.44c0 7.069 5.731 12.8 12.8 12.8h81.352l-361.825 305.801-361.825-305.801h80.917c7.069 0 12.8-5.731 12.8-12.8v-381.44h170.061v245.75c0 7.069 5.731 12.8 12.8 12.8h170.061c7.069 0 12.8-5.731 12.8-12.8v-245.75zM584.013 64v232.96h-144.461v-232.96h144.461zM511.992 664.183l-276.666-233.811c-5.399-4.563-13.475-3.885-18.038 1.514s-3.885 13.475 1.514 18.038l284.928 240.794c4.77 4.031 11.754 4.031 16.524 0l279.757-236.416c5.399-4.563 6.078-12.639 1.515-18.038s-12.639-6.078-18.038-1.515l-271.495 229.434zM204.8 768c-7.069 0-12.8 5.731-12.8 12.8v64c0 7.069 5.731 12.8 12.8 12.8h179.2c7.069 0 12.8-5.731 12.8-12.8v-64c0-7.069-5.731-12.8-12.8-12.8h-179.2zM217.6 793.6h153.6v38.4h-153.6v-38.4zM460.8 473.6c0-28.284 22.916-51.2 51.2-51.2s51.2 22.916 51.2 51.2c0 28.284-22.916 51.2-51.2 51.2s-51.2-22.916-51.2-51.2zM435.2 473.6c0 42.423 34.377 76.8 76.8 76.8s76.8-34.377 76.8-76.8c0-42.423-34.377-76.8-76.8-76.8s-76.8 34.377-76.8 76.8z" />
<glyph unicode="&#xe90d;" glyph-name="asset-class-REAL_ESTATE_buy" d="M243.2 768.010v-220.211c0-7.069-5.731-12.8-12.8-12.8s-12.8 5.731-12.8 12.8v233.011c0 7.069 5.731 12.8 12.8 12.8h128c7.069 0 12.8-5.731 12.8-12.8v-125.952c0-7.069-5.731-12.8-12.8-12.8s-12.8 5.731-12.8 12.8v113.152h-102.4zM597.33 38.41c-0.171-0.007-0.344-0.010-0.517-0.010h-170.061c-0.173 0-0.345 0.003-0.517 0.010h-195.144c-7.069 0-12.8 5.731-12.8 12.8v381.44h-103.091c-11.928 0-17.372 14.877-8.262 22.576l396.8 335.36c4.77 4.032 11.754 4.032 16.525 0l396.8-335.36c9.11-7.699 3.665-22.576-8.262-22.576h-103.526v-87.050c0-7.069-5.731-12.8-12.8-12.8h-159.936v-281.59c0-7.069-5.731-12.8-12.8-12.8h-22.408zM606.938 317.592v28.008c0 7.069 5.731 12.8 12.8 12.8h159.936v87.050c0 7.069 5.731 12.8 12.8 12.8h81.352l-361.825 305.801-361.825-305.801h80.917c7.069 0 12.8-5.731 12.8-12.8v-381.44h170.061v245.75c0 7.069 5.731 12.8 12.8 12.8h170.061c4.119 0 7.783-1.945 10.125-4.968zM584.013 64v232.96h-144.461v-232.96h144.461zM511.992 664.183l-276.666-233.811c-5.399-4.563-13.475-3.885-18.038 1.514s-3.885 13.475 1.514 18.038l284.928 240.794c4.77 4.031 11.754 4.031 16.524 0l279.757-236.416c5.399-4.563 6.078-12.639 1.515-18.038s-12.639-6.078-18.038-1.515l-271.495 229.434zM204.8 768c-7.069 0-12.8 5.731-12.8 12.8v64c0 7.069 5.731 12.8 12.8 12.8h179.2c7.069 0 12.8-5.731 12.8-12.8v-64c0-7.069-5.731-12.8-12.8-12.8h-179.2zM217.6 793.6h153.6v38.4h-153.6v-38.4zM460.8 473.6c0-28.284 22.916-51.2 51.2-51.2s51.2 22.916 51.2 51.2c0 28.284-22.916 51.2-51.2 51.2s-51.2-22.916-51.2-51.2zM435.2 473.6c0 42.423 34.377 76.8 76.8 76.8s76.8-34.377 76.8-76.8c0-42.423-34.377-76.8-76.8-76.8s-76.8 34.377-76.8 76.8zM753.6 92.365l-90.618 90.618c-5.624 5.624-14.741 5.624-20.365 0s-5.624-14.741 0-20.365l115.192-115.192c5.623-5.623 14.74-5.624 20.364-0.001l115.208 115.192c5.624 5.623 5.625 14.741 0.001 20.365s-14.741 5.625-20.365 0.001l-90.618-90.606v205.419c0 7.953-6.447 14.4-14.4 14.4s-14.4-6.447-14.4-14.4v-205.432zM768-38.4c-127.246 0-230.4 103.154-230.4 230.4s103.154 230.4 230.4 230.4c127.246 0 230.4-103.154 230.4-230.4s-103.154-230.4-230.4-230.4z" />
<glyph unicode="&#xe90e;" glyph-name="asset-class-REAL_ESTATE_sell" d="M243.2 768.010v-220.211c0-7.069-5.731-12.8-12.8-12.8s-12.8 5.731-12.8 12.8v233.011c0 7.069 5.731 12.8 12.8 12.8h128c7.069 0 12.8-5.731 12.8-12.8v-125.952c0-7.069-5.731-12.8-12.8-12.8s-12.8 5.731-12.8 12.8v113.152h-102.4zM597.33 38.41c-0.171-0.007-0.344-0.010-0.517-0.010h-170.061c-0.173 0-0.345 0.003-0.517 0.010h-195.144c-7.069 0-12.8 5.731-12.8 12.8v381.44h-103.091c-11.928 0-17.372 14.877-8.262 22.576l396.8 335.36c4.77 4.032 11.754 4.032 16.525 0l396.8-335.36c9.11-7.699 3.665-22.576-8.262-22.576h-103.526v-87.050c0-7.069-5.731-12.8-12.8-12.8h-159.936v-281.59c0-7.069-5.731-12.8-12.8-12.8h-22.408zM606.938 317.592v28.008c0 7.069 5.731 12.8 12.8 12.8h159.936v87.050c0 7.069 5.731 12.8 12.8 12.8h81.352l-361.825 305.801-361.825-305.801h80.917c7.069 0 12.8-5.731 12.8-12.8v-381.44h170.061v245.75c0 7.069 5.731 12.8 12.8 12.8h170.061c4.119 0 7.783-1.945 10.125-4.968zM584.013 64v232.96h-144.461v-232.96h144.461zM511.992 664.183l-276.666-233.811c-5.399-4.563-13.475-3.885-18.038 1.514s-3.885 13.475 1.514 18.038l284.928 240.794c4.77 4.031 11.754 4.031 16.524 0l279.757-236.416c5.399-4.563 6.078-12.639 1.515-18.038s-12.639-6.078-18.038-1.515l-271.495 229.434zM204.8 768c-7.069 0-12.8 5.731-12.8 12.8v64c0 7.069 5.731 12.8 12.8 12.8h179.2c7.069 0 12.8-5.731 12.8-12.8v-64c0-7.069-5.731-12.8-12.8-12.8h-179.2zM217.6 793.6h153.6v38.4h-153.6v-38.4zM460.8 473.6c0-28.284 22.916-51.2 51.2-51.2s51.2 22.916 51.2 51.2c0 28.284-22.916 51.2-51.2 51.2s-51.2-22.916-51.2-51.2zM435.2 473.6c0 42.423 34.377 76.8 76.8 76.8s76.8-34.377 76.8-76.8c0-42.423-34.377-76.8-76.8-76.8s-76.8 34.377-76.8 76.8zM782.4 272.431l90.618-90.606c5.624-5.623 14.742-5.623 20.365 0.001s5.623 14.742-0.001 20.365l-115.208 115.192c-5.624 5.623-14.741 5.623-20.364-0.001l-115.192-115.192c-5.624-5.624-5.624-14.741 0-20.365s14.741-5.624 20.365 0l90.618 90.618v-205.432c0-7.953 6.447-14.4 14.4-14.4s14.4 6.447 14.4 14.4v205.419zM768-38.4c-127.246 0-230.4 103.154-230.4 230.4s103.154 230.4 230.4 230.4c127.246 0 230.4-103.154 230.4-230.4s-103.154-230.4-230.4-230.4z" />
<glyph unicode="&#xe90f;" glyph-name="asset-class-COMMODITIES_buy" d="M140.797 64h151.578c7.069 0 12.8-5.731 12.8-12.8s-5.731-12.8-12.8-12.8h-164.378c-7.069 0-12.8 5.731-12.8 12.8v793.6c0 7.069 5.731 12.8 12.8 12.8h486.4c7.069 0 12.8-5.731 12.8-12.8v-446.387c0-7.069-5.731-12.8-12.8-12.8s-12.8 5.731-12.8 12.8v433.587h-460.8v-768zM614.4 563.2v-51.2c14.157 0 25.6 11.443 25.6 25.6s-11.443 25.6-25.6 25.6zM102.4 537.6c0-14.157 11.443-25.6 25.6-25.6v51.2c-14.157 0-25.6-11.443-25.6-25.6zM102.4 332.8c0-14.157 11.443-25.6 25.6-25.6v51.2c-14.157 0-25.6-11.443-25.6-25.6zM614.4 857.6h-486.4c-14.157 0-25.6-11.443-25.6-25.6s11.443-25.6 25.6-25.6h486.4c14.157 0 25.6 11.443 25.6 25.6s-11.443 25.6-25.6 25.6zM128 89.6c-14.157 0-25.6-11.443-25.6-25.6s11.443-25.6 25.6-25.6h179.2v51.2h-179.2zM128 320c-7.069 0-12.8 5.731-12.8 12.8s5.731 12.8 12.8 12.8h128c7.069 0 12.8-5.731 12.8-12.8s-5.731-12.8-12.8-12.8h-128zM128 524.8c-7.069 0-12.8 5.731-12.8 12.8s5.731 12.8 12.8 12.8h128c7.069 0 12.8-5.731 12.8-12.8s-5.731-12.8-12.8-12.8h-128zM486.4 524.8c-7.069 0-12.8 5.731-12.8 12.8s5.731 12.8 12.8 12.8h128c7.069 0 12.8-5.731 12.8-12.8s-5.731-12.8-12.8-12.8h-128zM595.034 153.6h-56.618l-22.758-89.6h102.135l-22.758 89.6zM634.25 38.4h-135.050c-8.347 0-14.461 7.861-12.406 15.951l29.261 115.2c1.442 5.675 6.55 9.649 12.406 9.649h76.528c5.856 0 10.965-3.974 12.406-9.649l29.261-115.2c2.055-8.090-4.059-15.951-12.406-15.951zM459.984 153.6h-126.368l-22.758-89.6h171.885l-22.758 89.6zM499.2 38.4h-204.8c-8.347 0-14.461 7.861-12.406 15.951l29.261 115.2c1.442 5.675 6.55 9.649 12.406 9.649h146.278c5.856 0 10.965-3.974 12.406-9.649l29.261-115.2c2.055-8.090-4.059-15.951-12.406-15.951zM562.384 268.8h-126.368l-22.758-89.6h171.885l-22.758 89.6zM601.6 153.6h-204.8c-8.347 0-14.461 7.861-12.406 15.951l29.261 115.2c1.442 5.675 6.55 9.649 12.406 9.649h146.278c5.856 0 10.965-3.974 12.406-9.649l29.261-115.2c2.055-8.090-4.059-15.951-12.406-15.951zM687.542 294.4l-22.758 89.6h-126.368l-22.758-89.6h171.885zM704 268.8h-204.8c-8.347 0-14.461 7.861-12.406 15.951l29.261 115.2c1.442 5.675 6.55 9.649 12.406 9.649h146.278c5.856 0 10.965-3.974 12.406-9.649l29.261-115.2c2.055-8.090-4.059-15.951-12.406-15.951zM473.6 166.4l25.6-115.2 25.6 115.2zM576 281.6l25.6-115.2 25.6 115.2zM742.4 512c-7.069 0-12.8 5.731-12.8 12.8s5.731 12.8 12.8 12.8h76.8c7.069 0 12.8-5.731 12.8-12.8s-5.731-12.8-12.8-12.8h-76.8zM793.6 473.6c0-7.069-5.731-12.8-12.8-12.8s-12.8 5.731-12.8 12.8v102.4c0 7.069 5.731 12.8 12.8 12.8s12.8-5.731 12.8-12.8v-102.4zM825.6 332.8c-7.069 0-12.8 5.731-12.8 12.8s5.731 12.8 12.8 12.8h51.2c7.069 0 12.8-5.731 12.8-12.8s-5.731-12.8-12.8-12.8h-51.2zM864 320c0-7.069-5.731-12.8-12.8-12.8s-12.8 5.731-12.8 12.8v51.2c0 7.069 5.731 12.8 12.8 12.8s12.8-5.731 12.8-12.8v-51.2zM230.4 435.2c0-77.744 63.056-140.8 140.8-140.8s140.8 63.056 140.8 140.8c0 77.744-63.056 140.8-140.8 140.8s-140.8-63.056-140.8-140.8zM204.8 435.2c0 91.882 74.518 166.4 166.4 166.4s166.4-74.518 166.4-166.4c0-91.882-74.518-166.4-166.4-166.4s-166.4 74.518-166.4 166.4zM753.6 92.365l-90.618 90.618c-5.624 5.624-14.741 5.624-20.365 0s-5.624-14.741 0-20.365l115.192-115.192c5.623-5.623 14.74-5.624 20.364-0.001l115.208 115.192c5.624 5.623 5.625 14.741 0.001 20.365s-14.741 5.625-20.365 0.001l-90.618-90.606v205.419c0 7.953-6.447 14.4-14.4 14.4s-14.4-6.447-14.4-14.4v-205.432zM768-38.4c-127.246 0-230.4 103.154-230.4 230.4s103.154 230.4 230.4 230.4c127.246 0 230.4-103.154 230.4-230.4s-103.154-230.4-230.4-230.4z" />
<glyph unicode="&#xe910;" glyph-name="asset-class-COMMODITIES_sell" d="M140.797 64h151.578c7.069 0 12.8-5.731 12.8-12.8s-5.731-12.8-12.8-12.8h-164.378c-7.069 0-12.8 5.731-12.8 12.8v793.6c0 7.069 5.731 12.8 12.8 12.8h486.4c7.069 0 12.8-5.731 12.8-12.8v-446.387c0-7.069-5.731-12.8-12.8-12.8s-12.8 5.731-12.8 12.8v433.587h-460.8v-768zM614.4 563.2v-51.2c14.157 0 25.6 11.443 25.6 25.6s-11.443 25.6-25.6 25.6zM102.4 537.6c0-14.157 11.443-25.6 25.6-25.6v51.2c-14.157 0-25.6-11.443-25.6-25.6zM102.4 332.8c0-14.157 11.443-25.6 25.6-25.6v51.2c-14.157 0-25.6-11.443-25.6-25.6zM614.4 857.6h-486.4c-14.157 0-25.6-11.443-25.6-25.6s11.443-25.6 25.6-25.6h486.4c14.157 0 25.6 11.443 25.6 25.6s-11.443 25.6-25.6 25.6zM128 89.6c-14.157 0-25.6-11.443-25.6-25.6s11.443-25.6 25.6-25.6h179.2v51.2h-179.2zM128 320c-7.069 0-12.8 5.731-12.8 12.8s5.731 12.8 12.8 12.8h128c7.069 0 12.8-5.731 12.8-12.8s-5.731-12.8-12.8-12.8h-128zM128 524.8c-7.069 0-12.8 5.731-12.8 12.8s5.731 12.8 12.8 12.8h128c7.069 0 12.8-5.731 12.8-12.8s-5.731-12.8-12.8-12.8h-128zM486.4 524.8c-7.069 0-12.8 5.731-12.8 12.8s5.731 12.8 12.8 12.8h128c7.069 0 12.8-5.731 12.8-12.8s-5.731-12.8-12.8-12.8h-128zM595.034 153.6h-56.618l-22.758-89.6h102.135l-22.758 89.6zM634.25 38.4h-135.050c-8.347 0-14.461 7.861-12.406 15.951l29.261 115.2c1.442 5.675 6.55 9.649 12.406 9.649h76.528c5.856 0 10.965-3.974 12.406-9.649l29.261-115.2c2.055-8.090-4.059-15.951-12.406-15.951zM459.984 153.6h-126.368l-22.758-89.6h171.885l-22.758 89.6zM499.2 38.4h-204.8c-8.347 0-14.461 7.861-12.406 15.951l29.261 115.2c1.442 5.675 6.55 9.649 12.406 9.649h146.278c5.856 0 10.965-3.974 12.406-9.649l29.261-115.2c2.055-8.090-4.059-15.951-12.406-15.951zM562.384 268.8h-126.368l-22.758-89.6h171.885l-22.758 89.6zM601.6 153.6h-204.8c-8.347 0-14.461 7.861-12.406 15.951l29.261 115.2c1.442 5.675 6.55 9.649 12.406 9.649h146.278c5.856 0 10.965-3.974 12.406-9.649l29.261-115.2c2.055-8.090-4.059-15.951-12.406-15.951zM687.542 294.4l-22.758 89.6h-126.368l-22.758-89.6h171.885zM704 268.8h-204.8c-8.347 0-14.461 7.861-12.406 15.951l29.261 115.2c1.442 5.675 6.55 9.649 12.406 9.649h146.278c5.856 0 10.965-3.974 12.406-9.649l29.261-115.2c2.055-8.090-4.059-15.951-12.406-15.951zM473.6 166.4l25.6-115.2 25.6 115.2zM576 281.6l25.6-115.2 25.6 115.2zM742.4 512c-7.069 0-12.8 5.731-12.8 12.8s5.731 12.8 12.8 12.8h76.8c7.069 0 12.8-5.731 12.8-12.8s-5.731-12.8-12.8-12.8h-76.8zM793.6 473.6c0-7.069-5.731-12.8-12.8-12.8s-12.8 5.731-12.8 12.8v102.4c0 7.069 5.731 12.8 12.8 12.8s12.8-5.731 12.8-12.8v-102.4zM825.6 332.8c-7.069 0-12.8 5.731-12.8 12.8s5.731 12.8 12.8 12.8h51.2c7.069 0 12.8-5.731 12.8-12.8s-5.731-12.8-12.8-12.8h-51.2zM864 320c0-7.069-5.731-12.8-12.8-12.8s-12.8 5.731-12.8 12.8v51.2c0 7.069 5.731 12.8 12.8 12.8s12.8-5.731 12.8-12.8v-51.2zM230.4 435.2c0-77.744 63.056-140.8 140.8-140.8s140.8 63.056 140.8 140.8c0 77.744-63.056 140.8-140.8 140.8s-140.8-63.056-140.8-140.8zM204.8 435.2c0 91.882 74.518 166.4 166.4 166.4s166.4-74.518 166.4-166.4c0-91.882-74.518-166.4-166.4-166.4s-166.4 74.518-166.4 166.4zM782.4 272.431l90.618-90.606c5.624-5.623 14.742-5.623 20.365 0.001s5.623 14.742-0.001 20.365l-115.208 115.192c-5.624 5.623-14.741 5.623-20.364-0.001l-115.192-115.192c-5.624-5.624-5.624-14.741 0-20.365s14.741-5.624 20.365 0l90.618 90.618v-205.432c0-7.953 6.447-14.4 14.4-14.4s14.4 6.447 14.4 14.4v205.419zM768-38.4c-127.246 0-230.4 103.154-230.4 230.4s103.154 230.4 230.4 230.4c127.246 0 230.4-103.154 230.4-230.4s-103.154-230.4-230.4-230.4z" />
<glyph unicode="&#xe911;" glyph-name="navigation-support" d="M384 678.4c-70.692 0-128-57.308-128-128v-179.2h-34.133l-68.267-51.2v486.4h512c56.554 0 102.4-45.846 102.4-102.4v-25.6h-384zM230.4 345.6h51.2v204.8c0 56.554 45.846 102.4 102.4 102.4h409.6v51.2c0 70.692-57.308 128-128 128h-537.6v-563.2l102.4 76.8zM870.4 652.8h-486.4c-56.554 0-102.4-45.846-102.4-102.4v-332.8h497.004l91.796-91.796v526.996zM896 678.4v-614.4l-128 128h-512v358.4c0 70.692 57.308 128 128 128h512zM460.8 448c0-14.138-11.462-25.6-25.6-25.6s-25.6 11.462-25.6 25.6c0 14.138 11.462 25.6 25.6 25.6s25.6-11.462 25.6-25.6zM588.8 448c0-14.138-11.462-25.6-25.6-25.6s-25.6 11.462-25.6 25.6c0 14.138 11.462 25.6 25.6 25.6s25.6-11.462 25.6-25.6zM716.8 448c0-14.138-11.462-25.6-25.6-25.6s-25.6 11.462-25.6 25.6c0 14.138 11.462 25.6 25.6 25.6s25.6-11.462 25.6-25.6z" />
<glyph unicode="&#xe912;" glyph-name="asset-class-CORPORATE_BONDS" d="M793.6 384.571v293.829c0 7.069 5.731 12.8 12.8 12.8h76.8c6.673 0 12.227-5.127 12.759-11.779l25.641-321.021v-307.2c0-7.069-5.731-12.8-12.8-12.8h-793.6c-7.069 0-12.8 5.731-12.8 12.8v486.4c0 10.651 12.251 16.643 20.658 10.104l209.742-163.132v153.029c0 10.651 12.251 16.643 20.658 10.104l209.742-163.132v153.029c0 10.651 12.251 16.643 20.658 10.104l209.742-163.132zM819.2 665.6v-307.2c0-10.651-12.251-16.643-20.658-10.104l-209.742 163.132v-153.029c0-10.651-12.251-16.643-20.658-10.104l-209.742 163.132v-153.029c0-10.651-12.251-16.643-20.658-10.104l-209.742 163.132v-447.429h768.002l0.039 293.379-24.658 308.221h-52.183zM832 857.6c35.332 0 64-28.668 64-64s-28.668-64-64-64c-14.128 0-27.483 4.695-38.4 13.006-10.917-8.311-24.272-13.006-38.4-13.006s-27.483 4.695-38.4 13.006c-10.917-8.311-24.272-13.006-38.4-13.006-35.332 0-64 28.668-64 64s28.668 64 64 64c14.128 0 27.483-4.695 38.4-13.006 10.917 8.311 24.272 13.006 38.4 13.006s27.483-4.695 38.4-13.006c10.917 8.311 24.272 13.006 38.4 13.006zM832 832c-11.099 0-21.416-4.872-28.77-13.271-5.099-5.824-14.161-5.824-19.26 0-7.354 8.398-17.671 13.271-28.77 13.271s-21.416-4.872-28.77-13.271c-5.099-5.824-14.161-5.824-19.26 0-7.354 8.398-17.671 13.271-28.77 13.271-21.193 0-38.4-17.207-38.4-38.4s17.207-38.4 38.4-38.4c11.099 0 21.416 4.872 28.77 13.271 5.099 5.824 14.161 5.824 19.26 0 7.354-8.398 17.671-13.271 28.77-13.271s21.416 4.872 28.77 13.271c5.099 5.824 14.161 5.824 19.26 0 7.354-8.398 17.671-13.271 28.77-13.271 21.193 0 38.4 17.207 38.4 38.4s-17.207 38.4-38.4 38.4zM320 857.6c35.332 0 64-28.668 64-64s-28.668-64-64-64c-14.128 0-27.483 4.695-38.4 13.006-10.917-8.311-24.272-13.006-38.4-13.006s-27.483 4.695-38.4 13.006c-10.917-8.311-24.272-13.006-38.4-13.006-35.332 0-64 28.668-64 64s28.668 64 64 64c14.128 0 27.483-4.695 38.4-13.006 10.917 8.311 24.272 13.006 38.4 13.006s27.483-4.695 38.4-13.006c10.917 8.311 24.272 13.006 38.4 13.006zM320 832c-11.099 0-21.416-4.872-28.77-13.271-5.099-5.824-14.161-5.824-19.26 0-7.354 8.398-17.671 13.271-28.77 13.271s-21.416-4.872-28.77-13.271c-5.099-5.824-14.161-5.824-19.26 0-7.354 8.398-17.671 13.271-28.77 13.271-21.193 0-38.4-17.207-38.4-38.4s17.207-38.4 38.4-38.4c11.099 0 21.416 4.872 28.77 13.271 5.099 5.824 14.161 5.824 19.26 0 7.354-8.398 17.671-13.271 28.77-13.271s21.416 4.872 28.77 13.271c5.099 5.824 14.161 5.824 19.26 0 7.354-8.398 17.671-13.271 28.77-13.271 21.193 0 38.4 17.207 38.4 38.4s-17.207 38.4-38.4 38.4zM665.6 243.2c0-14.128 11.472-25.6 25.6-25.6s25.6 11.472 25.6 25.6c0 14.128-11.472 25.6-25.6 25.6s-25.6-11.472-25.6-25.6zM640 243.2c0 28.266 22.934 51.2 51.2 51.2s51.2-22.934 51.2-51.2c0-28.266-22.934-51.2-51.2-51.2s-51.2 22.934-51.2 51.2zM435.2 243.2c0-14.128 11.472-25.6 25.6-25.6s25.6 11.472 25.6 25.6c0 14.128-11.472 25.6-25.6 25.6s-25.6-11.472-25.6-25.6zM409.6 243.2c0 28.266 22.934 51.2 51.2 51.2s51.2-22.934 51.2-51.2c0-28.266-22.934-51.2-51.2-51.2s-51.2 22.934-51.2 51.2zM204.8 243.2c0-14.128 11.472-25.6 25.6-25.6s25.6 11.472 25.6 25.6c0 14.128-11.472 25.6-25.6 25.6s-25.6-11.472-25.6-25.6zM179.2 243.2c0 28.266 22.934 51.2 51.2 51.2s51.2-22.934 51.2-51.2c0-28.266-22.934-51.2-51.2-51.2s-51.2 22.934-51.2 51.2z" />
<glyph unicode="&#xe913;" glyph-name="asset-class-CORPORATE_BONDS_buy" d="M793.6 384.571v293.829c0 7.069 5.731 12.8 12.8 12.8h76.8c6.673 0 12.227-5.127 12.759-11.779l25.6-320c0.578-7.229-4.958-13.494-12.203-13.809l-282.156-12.268v-282.144c0-7.069-5.731-12.8-12.8-12.8h-499.2c-7.069 0-12.8 5.731-12.8 12.8v486.4c0 10.651 12.251 16.643 20.658 10.104l209.742-163.132v153.029c0 10.651 12.251 16.643 20.658 10.104l209.742-163.132v153.029c0 10.651 12.251 16.643 20.658 10.104l209.742-163.132zM819.2 665.6v-298.284l75.782 3.295-23.599 294.989h-52.183zM776.475 365.459l-187.675 145.97v-153.029c0-10.651-12.251-16.643-20.658-10.104l-209.742 163.132v-153.029c0-10.651-12.251-16.643-20.658-10.104l-209.742 163.132v-447.429h473.6v281.6c0 6.853 5.397 12.49 12.244 12.788l162.631 7.071zM832 857.6c35.332 0 64-28.668 64-64s-28.668-64-64-64c-14.128 0-27.483 4.695-38.4 13.006-10.917-8.311-24.272-13.006-38.4-13.006s-27.483 4.695-38.4 13.006c-10.917-8.311-24.272-13.006-38.4-13.006-35.332 0-64 28.668-64 64s28.668 64 64 64c14.128 0 27.483-4.695 38.4-13.006 10.917 8.311 24.272 13.006 38.4 13.006s27.483-4.695 38.4-13.006c10.917 8.311 24.272 13.006 38.4 13.006zM832 832c-11.099 0-21.416-4.872-28.77-13.271-5.099-5.824-14.161-5.824-19.26 0-7.354 8.398-17.671 13.271-28.77 13.271s-21.416-4.872-28.77-13.271c-5.099-5.824-14.161-5.824-19.26 0-7.354 8.398-17.671 13.271-28.77 13.271-21.193 0-38.4-17.207-38.4-38.4s17.207-38.4 38.4-38.4c11.099 0 21.416 4.872 28.77 13.271 5.099 5.824 14.161 5.824 19.26 0 7.354-8.398 17.671-13.271 28.77-13.271s21.416 4.872 28.77 13.271c5.099 5.824 14.161 5.824 19.26 0 7.354-8.398 17.671-13.271 28.77-13.271 21.193 0 38.4 17.207 38.4 38.4s-17.207 38.4-38.4 38.4zM320 857.6c35.332 0 64-28.668 64-64s-28.668-64-64-64c-14.128 0-27.483 4.695-38.4 13.006-10.917-8.311-24.272-13.006-38.4-13.006s-27.483 4.695-38.4 13.006c-10.917-8.311-24.272-13.006-38.4-13.006-35.332 0-64 28.668-64 64s28.668 64 64 64c14.128 0 27.483-4.695 38.4-13.006 10.917 8.311 24.272 13.006 38.4 13.006s27.483-4.695 38.4-13.006c10.917 8.311 24.272 13.006 38.4 13.006zM320 832c-11.099 0-21.416-4.872-28.77-13.271-5.099-5.824-14.161-5.824-19.26 0-7.354 8.398-17.671 13.271-28.77 13.271s-21.416-4.872-28.77-13.271c-5.099-5.824-14.161-5.824-19.26 0-7.354 8.398-17.671 13.271-28.77 13.271-21.193 0-38.4-17.207-38.4-38.4s17.207-38.4 38.4-38.4c11.099 0 21.416 4.872 28.77 13.271 5.099 5.824 14.161 5.824 19.26 0 7.354-8.398 17.671-13.271 28.77-13.271s21.416 4.872 28.77 13.271c5.099 5.824 14.161 5.824 19.26 0 7.354-8.398 17.671-13.271 28.77-13.271 21.193 0 38.4 17.207 38.4 38.4s-17.207 38.4-38.4 38.4zM435.2 243.2c0-14.128 11.472-25.6 25.6-25.6s25.6 11.472 25.6 25.6c0 14.128-11.472 25.6-25.6 25.6s-25.6-11.472-25.6-25.6zM409.6 243.2c0 28.266 22.934 51.2 51.2 51.2s51.2-22.934 51.2-51.2c0-28.266-22.934-51.2-51.2-51.2s-51.2 22.934-51.2 51.2zM204.8 243.2c0-14.128 11.472-25.6 25.6-25.6s25.6 11.472 25.6 25.6c0 14.128-11.472 25.6-25.6 25.6s-25.6-11.472-25.6-25.6zM179.2 243.2c0 28.266 22.934 51.2 51.2 51.2s51.2-22.934 51.2-51.2c0-28.266-22.934-51.2-51.2-51.2s-51.2 22.934-51.2 51.2zM753.6 92.365l-90.618 90.618c-5.624 5.624-14.741 5.624-20.365 0s-5.624-14.741 0-20.365l115.192-115.192c5.623-5.623 14.74-5.624 20.364-0.001l115.208 115.192c5.624 5.623 5.625 14.741 0.001 20.365s-14.741 5.625-20.365 0.001l-90.618-90.606v205.419c0 7.953-6.447 14.4-14.4 14.4s-14.4-6.447-14.4-14.4v-205.432zM768-38.4c-127.246 0-230.4 103.154-230.4 230.4s103.154 230.4 230.4 230.4c127.246 0 230.4-103.154 230.4-230.4s-103.154-230.4-230.4-230.4z" />
<glyph unicode="&#xe914;" glyph-name="asset-class-CORPORATE_BONDS_sell" d="M793.6 384.571v293.829c0 7.069 5.731 12.8 12.8 12.8h76.8c6.673 0 12.227-5.127 12.759-11.779l25.6-320c0.578-7.229-4.958-13.494-12.203-13.809l-282.156-12.268v-282.144c0-7.069-5.731-12.8-12.8-12.8h-499.2c-7.069 0-12.8 5.731-12.8 12.8v486.4c0 10.651 12.251 16.643 20.658 10.104l209.742-163.132v153.029c0 10.651 12.251 16.643 20.658 10.104l209.742-163.132v153.029c0 10.651 12.251 16.643 20.658 10.104l209.742-163.132zM819.2 665.6v-298.284l75.782 3.295-23.599 294.989h-52.183zM776.475 365.459l-187.675 145.97v-153.029c0-10.651-12.251-16.643-20.658-10.104l-209.742 163.132v-153.029c0-10.651-12.251-16.643-20.658-10.104l-209.742 163.132v-447.429h473.6v281.6c0 6.853 5.397 12.49 12.244 12.788l162.631 7.071zM832 857.6c35.332 0 64-28.668 64-64s-28.668-64-64-64c-14.128 0-27.483 4.695-38.4 13.006-10.917-8.311-24.272-13.006-38.4-13.006s-27.483 4.695-38.4 13.006c-10.917-8.311-24.272-13.006-38.4-13.006-35.332 0-64 28.668-64 64s28.668 64 64 64c14.128 0 27.483-4.695 38.4-13.006 10.917 8.311 24.272 13.006 38.4 13.006s27.483-4.695 38.4-13.006c10.917 8.311 24.272 13.006 38.4 13.006zM832 832c-11.099 0-21.416-4.872-28.77-13.271-5.099-5.824-14.161-5.824-19.26 0-7.354 8.398-17.671 13.271-28.77 13.271s-21.416-4.872-28.77-13.271c-5.099-5.824-14.161-5.824-19.26 0-7.354 8.398-17.671 13.271-28.77 13.271-21.193 0-38.4-17.207-38.4-38.4s17.207-38.4 38.4-38.4c11.099 0 21.416 4.872 28.77 13.271 5.099 5.824 14.161 5.824 19.26 0 7.354-8.398 17.671-13.271 28.77-13.271s21.416 4.872 28.77 13.271c5.099 5.824 14.161 5.824 19.26 0 7.354-8.398 17.671-13.271 28.77-13.271 21.193 0 38.4 17.207 38.4 38.4s-17.207 38.4-38.4 38.4zM320 857.6c35.332 0 64-28.668 64-64s-28.668-64-64-64c-14.128 0-27.483 4.695-38.4 13.006-10.917-8.311-24.272-13.006-38.4-13.006s-27.483 4.695-38.4 13.006c-10.917-8.311-24.272-13.006-38.4-13.006-35.332 0-64 28.668-64 64s28.668 64 64 64c14.128 0 27.483-4.695 38.4-13.006 10.917 8.311 24.272 13.006 38.4 13.006s27.483-4.695 38.4-13.006c10.917 8.311 24.272 13.006 38.4 13.006zM320 832c-11.099 0-21.416-4.872-28.77-13.271-5.099-5.824-14.161-5.824-19.26 0-7.354 8.398-17.671 13.271-28.77 13.271s-21.416-4.872-28.77-13.271c-5.099-5.824-14.161-5.824-19.26 0-7.354 8.398-17.671 13.271-28.77 13.271-21.193 0-38.4-17.207-38.4-38.4s17.207-38.4 38.4-38.4c11.099 0 21.416 4.872 28.77 13.271 5.099 5.824 14.161 5.824 19.26 0 7.354-8.398 17.671-13.271 28.77-13.271s21.416 4.872 28.77 13.271c5.099 5.824 14.161 5.824 19.26 0 7.354-8.398 17.671-13.271 28.77-13.271 21.193 0 38.4 17.207 38.4 38.4s-17.207 38.4-38.4 38.4zM435.2 243.2c0-14.128 11.472-25.6 25.6-25.6s25.6 11.472 25.6 25.6c0 14.128-11.472 25.6-25.6 25.6s-25.6-11.472-25.6-25.6zM409.6 243.2c0 28.266 22.934 51.2 51.2 51.2s51.2-22.934 51.2-51.2c0-28.266-22.934-51.2-51.2-51.2s-51.2 22.934-51.2 51.2zM204.8 243.2c0-14.128 11.472-25.6 25.6-25.6s25.6 11.472 25.6 25.6c0 14.128-11.472 25.6-25.6 25.6s-25.6-11.472-25.6-25.6zM179.2 243.2c0 28.266 22.934 51.2 51.2 51.2s51.2-22.934 51.2-51.2c0-28.266-22.934-51.2-51.2-51.2s-51.2 22.934-51.2 51.2zM782.4 272.431l90.618-90.606c5.624-5.623 14.742-5.623 20.365 0.001s5.623 14.742-0.001 20.365l-115.208 115.192c-5.624 5.623-14.741 5.623-20.364-0.001l-115.192-115.192c-5.624-5.624-5.624-14.741 0-20.365s14.741-5.624 20.365 0l90.618 90.618v-205.432c0-7.953 6.447-14.4 14.4-14.4s14.4 6.447 14.4 14.4v205.419zM768-38.4c-127.246 0-230.4 103.154-230.4 230.4s103.154 230.4 230.4 230.4c127.246 0 230.4-103.154 230.4-230.4s-103.154-230.4-230.4-230.4z" />
<glyph unicode="&#xe915;" glyph-name="asset-class-COVERED_BONDS_buy" d="M513.947 38.549h-3.895c-25.989 4-54.286 14.061-84.706 29.469-143.711 72.782-239.853 218.691-254.824 383.767l-29.67 327.27c-1.218 13.431 16.482 19.37 23.612 7.923 28.922-46.429 90.178-77.014 158.838-77.014 97.74 0 175.898 61.151 175.898 134.835h25.6c0-73.685 78.158-134.835 175.898-134.835 68.66 0 129.916 30.585 158.838 77.014 7.13 11.447 24.83 5.507 23.612-7.923l-29.67-327.271c-2.838-31.294-8.627-62.152-17.253-92.155-10.706-37.236-38.485-41.42-116.518-35.389-3.005 0.232-3.005 0.232-6.002 0.461-53.398 4.048-77.504 1.393-89.492-12.921-11.339-13.539-11.358-40.213-3.12-106.661 11.107-89.58 9.573-120.89-22.44-137.103-30.421-15.408-58.718-25.469-84.707-29.469zM587.087 90.856c16.461 8.336 17.843 36.569 8.61 111.044-9.464 76.328-9.443 104.428 8.89 126.319 19.759 23.593 48.472 26.755 111.053 22.011 3.027-0.231 3.027-0.231 6.040-0.464 63.596-4.916 84.566-1.757 89.941 16.938 8.179 28.449 13.669 57.713 16.361 87.393l25.966 286.414c-37.603-35.032-93.151-56.146-153.251-56.146-85.969 0-159.942 42.853-188.698 103.871-28.756-61.018-102.729-103.871-188.698-103.871-60.1 0-115.647 21.114-153.251 56.146l25.966-286.414c14.186-156.419 105.173-294.506 240.895-363.241 27.398-13.877 52.569-22.942 75.087-26.693 22.518 3.75 47.689 12.816 75.087 26.693zM512 788.236c-8.27 17.548-12.8 36.599-12.8 56.564 0 17.067 25.6 17.067 25.6 0 0-19.966-4.53-39.016-12.8-56.564zM504.046 682.805c4.658 3.694 11.247 3.695 15.906 0.001 45.509-36.082 104.892-57.556 168.612-59.985 12.162-0.464 16.874-16.041 7.007-23.167l-382.822-276.506c-6.54-4.724-15.766-2.293-19.13 5.041-19.183 41.829-31.226 86.205-35.314 131.513l-14.106 155.392c-0.777 8.556 6.929 15.432 15.341 13.692 20.778-4.3 42.159-6.493 63.761-6.493 68.065 0 132.076 21.915 180.744 60.512zM323.302 596.692c-17.549 0-34.97 1.34-52.089 3.981l12.587-138.665c3.361-37.242 12.478-73.848 26.849-108.798l342.169 247.142c-52.323 7.423-100.881 26.916-140.816 56.314-52.122-38.418-118.528-59.975-188.701-59.975zM779.798 615.096l-8.243-91.008c-0.334-3.69-2.251-7.053-5.254-9.222l-393.882-284.442c-5.353-3.866-12.768-3.025-17.12 1.941-24.799 28.297-45.576 60.629-61.686 95.833-2.541 5.553-0.806 12.127 4.144 15.703l382.822 276.506c2.332 1.684 5.163 2.534 8.037 2.412 2.261-0.107 2.261-0.107 4.387-0.228 3.988-0.226 5.803-0.298 7.692-0.298 20.67 0 41.235 2.048 61.188 6.002 1.082 0.219 1.082 0.219 1.776 0.338 9.045 2.017 16.923-4.885 16.139-13.536zM700.695 596.692c-2.495 0-4.699 0.087-8.307 0.291-0.165 0.009-123.835-89.191-371.008-267.6 12.629-25.727 27.95-49.666 45.653-71.272l379.553 274.094 6.205 68.503c-17.2-2.661-34.61-4.016-52.095-4.016zM355.291 232.372c-4.964 5.675-3.972 14.39 2.141 18.804l393.882 284.442c8.903 6.429 21.237-0.601 20.241-11.538l-5.862-64.38c-12.246-134.913-91.468-255.022-207.001-313.544-16.322-8.27-30.646-13.979-43.182-17.556-2.299-0.656-4.735-0.655-7.033 0.002-12.578 3.598-26.907 9.314-43.168 17.577-30.168 15.266-58.257 35.104-83.725 58.898-8.934 8.344-17.666 17.432-26.293 27.296zM399.059 223.784c23.733-22.172 49.839-40.61 77.828-54.774 13.297-6.757 24.955-11.56 35.114-14.742 10.125 3.167 21.783 7.966 35.121 14.723 107.55 54.478 181.615 166.769 193.075 293.025l3.313 36.388-359.494-259.609c4.973-5.284 9.981-10.286 15.043-15.013zM753.6 92.365l-90.618 90.618c-5.624 5.624-14.741 5.624-20.365 0s-5.624-14.741 0-20.365l115.192-115.192c5.623-5.623 14.74-5.624 20.364-0.001l115.208 115.192c5.624 5.623 5.625 14.741 0.001 20.365s-14.741 5.625-20.365 0.001l-90.618-90.606v205.419c0 7.953-6.447 14.4-14.4 14.4s-14.4-6.447-14.4-14.4v-205.432zM768-38.4c-127.246 0-230.4 103.154-230.4 230.4s103.154 230.4 230.4 230.4c127.246 0 230.4-103.154 230.4-230.4s-103.154-230.4-230.4-230.4z" />
<glyph unicode="&#xe916;" glyph-name="asset-class-COVERED_BONDS_sell" d="M513.947 38.549h-3.895c-25.989 4-54.286 14.061-84.706 29.469-143.711 72.782-239.853 218.691-254.824 383.767l-29.67 327.27c-1.218 13.431 16.482 19.37 23.612 7.923 28.922-46.429 90.178-77.014 158.838-77.014 97.74 0 175.898 61.151 175.898 134.835h25.6c0-73.685 78.158-134.835 175.898-134.835 68.66 0 129.916 30.585 158.838 77.014 7.13 11.447 24.83 5.507 23.612-7.923l-29.67-327.271c-2.838-31.294-8.627-62.152-17.253-92.155-10.706-37.236-38.485-41.42-116.518-35.389-3.005 0.232-3.005 0.232-6.002 0.461-53.398 4.048-77.504 1.393-89.492-12.921-11.339-13.539-11.358-40.213-3.12-106.661 11.107-89.58 9.573-120.89-22.44-137.103-30.421-15.408-58.718-25.469-84.707-29.469zM587.087 90.856c16.461 8.336 17.843 36.569 8.61 111.044-9.464 76.328-9.443 104.428 8.89 126.319 19.759 23.593 48.472 26.755 111.053 22.011 3.027-0.231 3.027-0.231 6.040-0.464 63.596-4.916 84.566-1.757 89.941 16.938 8.179 28.449 13.669 57.713 16.361 87.393l25.966 286.414c-37.603-35.032-93.151-56.146-153.251-56.146-85.969 0-159.942 42.853-188.698 103.871-28.756-61.018-102.729-103.871-188.698-103.871-60.1 0-115.647 21.114-153.251 56.146l25.966-286.414c14.186-156.419 105.173-294.506 240.895-363.241 27.398-13.877 52.569-22.942 75.087-26.693 22.518 3.75 47.689 12.816 75.087 26.693zM512 788.236c-8.27 17.548-12.8 36.599-12.8 56.564 0 17.067 25.6 17.067 25.6 0 0-19.966-4.53-39.016-12.8-56.564zM504.046 682.805c4.658 3.694 11.247 3.695 15.906 0.001 45.509-36.082 104.892-57.556 168.612-59.985 12.162-0.464 16.874-16.041 7.007-23.167l-382.822-276.506c-6.54-4.724-15.766-2.293-19.13 5.041-19.183 41.829-31.226 86.205-35.314 131.513l-14.106 155.392c-0.777 8.556 6.929 15.432 15.341 13.692 20.778-4.3 42.159-6.493 63.761-6.493 68.065 0 132.076 21.915 180.744 60.512zM323.302 596.692c-17.549 0-34.97 1.34-52.089 3.981l12.587-138.665c3.361-37.242 12.478-73.848 26.849-108.798l342.169 247.142c-52.323 7.423-100.881 26.916-140.816 56.314-52.122-38.418-118.528-59.975-188.701-59.975zM779.798 615.096l-8.243-91.008c-0.334-3.69-2.251-7.053-5.254-9.222l-393.882-284.442c-5.353-3.866-12.768-3.025-17.12 1.941-24.799 28.297-45.576 60.629-61.686 95.833-2.541 5.553-0.806 12.127 4.144 15.703l382.822 276.506c2.332 1.684 5.163 2.534 8.037 2.412 2.261-0.107 2.261-0.107 4.387-0.228 3.988-0.226 5.803-0.298 7.692-0.298 20.67 0 41.235 2.048 61.188 6.002 1.082 0.219 1.082 0.219 1.776 0.338 9.045 2.017 16.923-4.885 16.139-13.536zM700.695 596.692c-2.495 0-4.699 0.087-8.307 0.291-0.165 0.009-123.835-89.191-371.008-267.6 12.629-25.727 27.95-49.666 45.653-71.272l379.553 274.094 6.205 68.503c-17.2-2.661-34.61-4.016-52.095-4.016zM355.291 232.372c-4.964 5.675-3.972 14.39 2.141 18.804l393.882 284.442c8.903 6.429 21.237-0.601 20.241-11.538l-5.862-64.38c-12.246-134.913-91.468-255.022-207.001-313.544-16.322-8.27-30.646-13.979-43.182-17.556-2.299-0.656-4.735-0.655-7.033 0.002-12.578 3.598-26.907 9.314-43.168 17.577-30.168 15.266-58.257 35.104-83.725 58.898-8.934 8.344-17.666 17.432-26.293 27.296zM399.059 223.784c23.733-22.172 49.839-40.61 77.828-54.774 13.297-6.757 24.955-11.56 35.114-14.742 10.125 3.167 21.783 7.966 35.121 14.723 107.55 54.478 181.615 166.769 193.075 293.025l3.313 36.388-359.494-259.609c4.973-5.284 9.981-10.286 15.043-15.013zM782.4 272.431l90.618-90.606c5.624-5.623 14.742-5.623 20.365 0.001s5.623 14.742-0.001 20.365l-115.208 115.192c-5.624 5.623-14.741 5.623-20.364-0.001l-115.192-115.192c-5.624-5.624-5.624-14.741 0-20.365s14.741-5.624 20.365 0l90.618 90.618v-205.432c0-7.953 6.447-14.4 14.4-14.4s14.4 6.447 14.4 14.4v205.419zM768-38.4c-127.246 0-230.4 103.154-230.4 230.4s103.154 230.4 230.4 230.4c127.246 0 230.4-103.154 230.4-230.4s-103.154-230.4-230.4-230.4z" />
<glyph unicode="&#xe917;" glyph-name="asset-class-COVERED_BONDS" d="M513.947 38.549h-3.895c-25.989 4-54.286 14.061-84.706 29.469-143.711 72.782-239.853 218.691-254.824 383.767l-29.67 327.27c-1.218 13.431 16.482 19.37 23.612 7.923 28.922-46.429 90.178-77.014 158.838-77.014 97.74 0 175.898 61.151 175.898 134.835h25.6c0-73.685 78.158-134.835 175.898-134.835 68.66 0 129.916 30.585 158.838 77.014 7.13 11.447 24.83 5.507 23.612-7.923l-29.67-327.271c-14.971-165.076-111.113-310.985-254.823-383.767-30.421-15.408-58.718-25.469-84.707-29.469zM587.087 90.856c135.721 68.735 226.709 206.822 240.895 363.241l25.966 286.414c-37.603-35.032-93.151-56.146-153.251-56.146-85.969 0-159.942 42.853-188.698 103.871-28.756-61.018-102.729-103.871-188.698-103.871-60.1 0-115.647 21.114-153.251 56.146l25.966-286.414c14.186-156.419 105.173-294.506 240.895-363.241 27.398-13.877 52.569-22.942 75.087-26.693 22.518 3.75 47.689 12.816 75.087 26.693zM512 788.236c-8.27 17.548-12.8 36.599-12.8 56.564 0 17.067 25.6 17.067 25.6 0 0-19.966-4.53-39.016-12.8-56.564zM504.046 682.805c4.658 3.694 11.247 3.695 15.906 0.001 45.509-36.082 104.892-57.556 168.612-59.985 12.162-0.464 16.874-16.041 7.007-23.167l-382.822-276.506c-6.54-4.724-15.766-2.293-19.13 5.041-19.183 41.829-31.226 86.205-35.314 131.513l-14.106 155.392c-0.777 8.556 6.929 15.432 15.341 13.692 20.778-4.3 42.159-6.493 63.761-6.493 68.065 0 132.076 21.915 180.744 60.512zM323.302 596.692c-17.549 0-34.97 1.34-52.089 3.981l12.587-138.665c3.361-37.242 12.478-73.848 26.849-108.798l342.169 247.142c-52.323 7.423-100.881 26.916-140.816 56.314-52.122-38.418-118.528-59.975-188.701-59.975zM779.798 615.096l-8.243-91.008c-0.334-3.69-2.251-7.053-5.254-9.222l-393.882-284.442c-5.353-3.866-12.768-3.025-17.12 1.941-24.799 28.297-45.576 60.629-61.686 95.833-2.541 5.553-0.806 12.127 4.144 15.703l382.822 276.506c2.332 1.684 5.163 2.534 8.037 2.412 2.261-0.107 2.261-0.107 4.387-0.228 3.988-0.226 5.803-0.298 7.692-0.298 20.67 0 41.235 2.048 61.188 6.002 1.082 0.219 1.082 0.219 1.776 0.338 9.045 2.017 16.923-4.885 16.139-13.536zM700.695 596.692c-2.495 0-4.699 0.087-8.307 0.291-0.165 0.009-123.835-89.191-371.008-267.6 12.629-25.727 27.95-49.666 45.653-71.272l379.553 274.094 6.205 68.503c-17.2-2.661-34.61-4.016-52.095-4.016zM355.291 232.372c-4.964 5.675-3.972 14.39 2.141 18.804l393.882 284.442c8.903 6.429 21.237-0.601 20.241-11.538l-5.862-64.38c-12.246-134.913-91.468-255.022-207.001-313.544-16.322-8.27-30.646-13.979-43.182-17.556-2.299-0.656-4.735-0.655-7.033 0.002-12.578 3.598-26.907 9.314-43.168 17.577-30.168 15.266-58.257 35.104-83.725 58.898-8.934 8.344-17.666 17.432-26.293 27.296zM399.059 223.784c23.733-22.172 49.839-40.61 77.828-54.774 13.297-6.757 24.955-11.56 35.114-14.742 10.125 3.167 21.783 7.966 35.121 14.723 107.55 54.478 181.615 166.769 193.075 293.025l3.313 36.388-359.494-259.609c4.973-5.284 9.981-10.286 15.043-15.013z" />
<glyph unicode="&#xe918;" glyph-name="transaction-deposit_EUR" d="M499.2 299.702v545.108c0 7.069 5.731 12.8 12.8 12.8s12.8-5.731 12.8-12.8v-545.113l204.43 204.43c4.999 4.999 13.103 4.999 18.102 0s4.999-13.103 0-18.102l-226.278-226.278c-4.999-4.999-13.103-4.999-18.102 0l-226.278 226.278c-4.999 4.999-4.999 13.103 0 18.102s13.103 4.999 18.102 0l204.425-204.425zM896 256c0 7.069 5.731 12.8 12.8 12.8s12.8-5.731 12.8-12.8v-154.624c0-34.666-28.31-62.976-62.976-62.976h-693.248c-34.666 0-62.976 28.31-62.976 62.976v154.624c0 7.069 5.731 12.8 12.8 12.8s12.8-5.731 12.8-12.8v-154.624c0-20.528 16.848-37.376 37.376-37.376h693.248c20.528 0 37.376 16.848 37.376 37.376v154.624z" />
<glyph unicode="&#xe919;" glyph-name="transaction-distribution_EUR" d="M213.051 64c10.892 0 19.84 8.953 19.84 19.84v182.426c0 10.91-8.946 19.866-19.84 19.866h-65.203c-10.879 0-19.84-8.966-19.84-19.866v-182.426c0-10.876 8.964-19.84 19.84-19.84h65.203zM213.051 38.4h-65.203c-25.015 0-45.44 20.425-45.44 45.44v182.426c0 25.035 20.42 45.466 45.44 45.466h65.203c25.039 0 45.44-20.423 45.44-45.466v-182.426c0-25.022-20.407-45.44-45.44-45.44zM401.704 297.116l169.167-59.367c18.431-6.472 29.366-25.175 25.56-44.132-4.086-20.203-23.471-33.686-44.188-31.021l-151.731 19.584c-7.011 0.905-11.961 7.322-11.056 14.333s7.322 11.961 14.333 11.056l151.726-19.583c7.545-0.971 14.431 3.819 15.821 10.689 1.265 6.3-2.439 12.635-8.944 14.919l-169.172 59.369c-24.918 8.762-52.424 7.774-76.638-2.76l-3.018-0.891-66.253-10.957c-6.975-1.153-13.564 3.565-14.717 10.54s3.565 13.564 10.54 14.717l64.73 10.705c29.774 12.51 63.347 13.522 93.84 2.799zM246.296 123.899c-7.062-0.32-13.046 5.145-13.366 12.207s5.145 13.046 12.207 13.366l59.315 2.688 4.376-0.563 198.478-61.645c24.894-7.735 51.872-5.932 75.408 5.038l304.948 141.966c6.858 3.211 9.99 10.674 7.459 17.308-2.631 6.947-10.562 10.867-18.21 8.776l-231.706-63.462c-6.818-1.867-13.859 2.146-15.727 8.964s2.146 13.859 8.964 15.727l231.711 63.464c20.256 5.538 41.556-4.988 48.897-24.374 7.351-19.272-1.662-40.752-20.561-49.599l-304.968-141.975c-29.306-13.659-62.847-15.901-93.812-6.28l-196.338 60.981-57.078-2.587zM358.4 588.8c0-28.284 22.916-51.2 51.2-51.2s51.2 22.916 51.2 51.2c0 28.284-22.916 51.2-51.2 51.2s-51.2-22.916-51.2-51.2zM332.8 588.8c0 42.423 34.377 76.8 76.8 76.8s76.8-34.377 76.8-76.8c0-42.423-34.377-76.8-76.8-76.8s-76.8 34.377-76.8 76.8zM396.8 844.8c0 7.069 5.731 12.8 12.8 12.8s12.8-5.731 12.8-12.8v-128c0-7.069-5.731-12.8-12.8-12.8s-12.8 5.731-12.8 12.8v128zM576 384c0-28.284 22.916-51.2 51.2-51.2s51.2 22.916 51.2 51.2c0 28.284-22.916 51.2-51.2 51.2s-51.2-22.916-51.2-51.2zM550.4 384c0 42.423 34.377 76.8 76.8 76.8s76.8-34.377 76.8-76.8c0-42.423-34.377-76.8-76.8-76.8s-76.8 34.377-76.8 76.8zM614.4 691.2c0 7.069 5.731 12.8 12.8 12.8s12.8-5.731 12.8-12.8v-179.2c0-7.069-5.731-12.8-12.8-12.8s-12.8 5.731-12.8 12.8v179.2zM793.6 537.6c0-28.284 22.916-51.2 51.2-51.2s51.2 22.916 51.2 51.2c0 28.284-22.916 51.2-51.2 51.2s-51.2-22.916-51.2-51.2zM768 537.6c0 42.423 34.377 76.8 76.8 76.8s76.8-34.377 76.8-76.8c0-42.423-34.377-76.8-76.8-76.8s-76.8 34.377-76.8 76.8zM832 844.8c0 7.069 5.731 12.8 12.8 12.8s12.8-5.731 12.8-12.8v-179.2c0-7.069-5.731-12.8-12.8-12.8s-12.8 5.731-12.8 12.8v179.2z" />
<glyph unicode="&#xe91a;" glyph-name="asset-class-EQUITIES_buy" d="M396.8 243.2c7.069 0 12.8-5.731 12.8-12.8s-5.731-12.8-12.8-12.8h-231.424c-34.666 0-62.976 28.31-62.976 62.976v514.048c0 34.666 28.31 62.976 62.976 62.976h693.248c34.666 0 62.976-28.31 62.976-62.976v-514.048c0-7.069-5.731-12.8-12.8-12.8s-12.8 5.731-12.8 12.8v514.048c0 20.528-16.848 37.376-37.376 37.376h-693.248c-20.528 0-37.376-16.848-37.376-37.376v-514.048c0-20.528 16.848-37.376 37.376-37.376h231.424zM606.259 174.541c4.999 4.999 13.103 4.999 18.102 0s4.999-13.103 0-18.102c-54.996-54.996-144.125-54.996-199.121 0s-54.996 144.125 0 199.121c54.996 54.996 144.125 54.996 199.121 0 4.999-4.999 4.999-13.103 0-18.102s-13.103-4.999-18.102 0c-44.999 44.999-117.919 44.999-162.917 0s-44.999-117.919 0-162.917c44.999-44.999 117.919-44.999 162.917 0zM486.4 256c0-21.193 17.207-38.4 38.4-38.4s38.4 17.207 38.4 38.4c0 21.193-17.207 38.4-38.4 38.4s-38.4-17.207-38.4-38.4zM460.8 256c0 35.332 28.668 64 64 64s64-28.668 64-64c0-35.332-28.668-64-64-64s-64 28.668-64 64zM320 576c-7.069 0-12.8 5.731-12.8 12.8s5.731 12.8 12.8 12.8h384c7.069 0 12.8-5.731 12.8-12.8s-5.731-12.8-12.8-12.8h-384zM320 473.6c-7.069 0-12.8 5.731-12.8 12.8s5.731 12.8 12.8 12.8h384c7.069 0 12.8-5.731 12.8-12.8s-5.731-12.8-12.8-12.8h-384zM477.501 138.849c3.161 6.323 10.85 8.886 17.173 5.724s8.886-10.85 5.724-17.173l-40.96-81.92c-2.168-4.336-6.6-7.076-11.449-7.076h-128c-9.516 0-15.704 10.014-11.448 18.525l82.893 165.76c3.162 6.323 10.851 8.885 17.173 5.723s8.885-10.851 5.723-17.173l-73.629-147.235h99.377l37.422 74.844zM422.451 345.6c7.069 0 12.8-5.731 12.8-12.8s-5.731-12.8-12.8-12.8h-181.709c-19.792 0-35.942 16.15-35.942 35.942v363.315c0 19.792 16.15 35.942 35.942 35.942h542.515c19.792 0 35.942-16.15 35.942-35.942v-363.315c0-19.792-16.15-35.942-35.942-35.942h-156.134c-7.069 0-12.8 5.731-12.8 12.8s5.731 12.8 12.8 12.8h156.134c5.654 0 10.342 4.688 10.342 10.342v363.315c0 5.654-4.688 10.342-10.342 10.342h-542.515c-5.654 0-10.342-4.688-10.342-10.342v-363.315c0-5.654 4.688-10.342 10.342-10.342h181.709zM753.6 92.365l-90.618 90.618c-5.624 5.624-14.741 5.624-20.365 0s-5.624-14.741 0-20.365l115.192-115.192c5.623-5.623 14.74-5.624 20.364-0.001l115.208 115.192c5.624 5.623 5.625 14.741 0.001 20.365s-14.741 5.625-20.365 0.001l-90.618-90.606v205.419c0 7.953-6.447 14.4-14.4 14.4s-14.4-6.447-14.4-14.4v-205.432zM768-38.4c-127.246 0-230.4 103.154-230.4 230.4s103.154 230.4 230.4 230.4c127.246 0 230.4-103.154 230.4-230.4s-103.154-230.4-230.4-230.4z" />
<glyph unicode="&#xe91b;" glyph-name="asset-class-EQUITIES_sell" d="M396.8 243.2c7.069 0 12.8-5.731 12.8-12.8s-5.731-12.8-12.8-12.8h-231.424c-34.666 0-62.976 28.31-62.976 62.976v514.048c0 34.666 28.31 62.976 62.976 62.976h693.248c34.666 0 62.976-28.31 62.976-62.976v-514.048c0-7.069-5.731-12.8-12.8-12.8s-12.8 5.731-12.8 12.8v514.048c0 20.528-16.848 37.376-37.376 37.376h-693.248c-20.528 0-37.376-16.848-37.376-37.376v-514.048c0-20.528 16.848-37.376 37.376-37.376h231.424zM606.259 174.541c4.999 4.999 13.103 4.999 18.102 0s4.999-13.103 0-18.102c-54.996-54.996-144.125-54.996-199.121 0s-54.996 144.125 0 199.121c54.996 54.996 144.125 54.996 199.121 0 4.999-4.999 4.999-13.103 0-18.102s-13.103-4.999-18.102 0c-44.999 44.999-117.919 44.999-162.917 0s-44.999-117.919 0-162.917c44.999-44.999 117.919-44.999 162.917 0zM486.4 256c0-21.193 17.207-38.4 38.4-38.4s38.4 17.207 38.4 38.4c0 21.193-17.207 38.4-38.4 38.4s-38.4-17.207-38.4-38.4zM460.8 256c0 35.332 28.668 64 64 64s64-28.668 64-64c0-35.332-28.668-64-64-64s-64 28.668-64 64zM320 576c-7.069 0-12.8 5.731-12.8 12.8s5.731 12.8 12.8 12.8h384c7.069 0 12.8-5.731 12.8-12.8s-5.731-12.8-12.8-12.8h-384zM320 473.6c-7.069 0-12.8 5.731-12.8 12.8s5.731 12.8 12.8 12.8h384c7.069 0 12.8-5.731 12.8-12.8s-5.731-12.8-12.8-12.8h-384zM477.501 138.849c3.161 6.323 10.85 8.886 17.173 5.724s8.886-10.85 5.724-17.173l-40.96-81.92c-2.168-4.336-6.6-7.076-11.449-7.076h-128c-9.516 0-15.704 10.014-11.448 18.525l82.893 165.76c3.162 6.323 10.851 8.885 17.173 5.723s8.885-10.851 5.723-17.173l-73.629-147.235h99.377l37.422 74.844zM422.451 345.6c7.069 0 12.8-5.731 12.8-12.8s-5.731-12.8-12.8-12.8h-181.709c-19.792 0-35.942 16.15-35.942 35.942v363.315c0 19.792 16.15 35.942 35.942 35.942h542.515c19.792 0 35.942-16.15 35.942-35.942v-363.315c0-19.792-16.15-35.942-35.942-35.942h-156.134c-7.069 0-12.8 5.731-12.8 12.8s5.731 12.8 12.8 12.8h156.134c5.654 0 10.342 4.688 10.342 10.342v363.315c0 5.654-4.688 10.342-10.342 10.342h-542.515c-5.654 0-10.342-4.688-10.342-10.342v-363.315c0-5.654 4.688-10.342 10.342-10.342h181.709zM782.4 272.431l90.618-90.606c5.624-5.623 14.742-5.623 20.365 0.001s5.623 14.742-0.001 20.365l-115.208 115.192c-5.624 5.623-14.741 5.623-20.364-0.001l-115.192-115.192c-5.624-5.624-5.624-14.741 0-20.365s14.741-5.624 20.365 0l90.618 90.618v-205.432c0-7.953 6.447-14.4 14.4-14.4s14.4 6.447 14.4 14.4v205.419zM768-38.4c-127.246 0-230.4 103.154-230.4 230.4s103.154 230.4 230.4 230.4c127.246 0 230.4-103.154 230.4-230.4s-103.154-230.4-230.4-230.4z" />
<glyph unicode="&#xe91c;" glyph-name="asset-class-GOVERNMENT_BONDS_buy" d="M505.189 855.637c4.164 2.617 9.459 2.617 13.623 0l386.347-242.827c28.672-18.085 15.91-62.41-18.016-62.41h-750.285c-33.926 0-46.688 44.325-17.999 62.421l386.33 242.816zM512 829.682l-379.501-238.524c-6.98-4.403-3.884-15.158 4.359-15.158h750.285c8.242 0 11.339 10.755 4.376 15.147l-379.518 238.535zM115.2 38.4c-7.069 0-12.8 5.731-12.8 12.8v102.4c0 7.069 5.731 12.8 12.8 12.8h499.2c7.069 0 12.8-5.731 12.8-12.8v-102.4c0-7.069-5.731-12.8-12.8-12.8h-499.2zM128 64h473.6v76.8h-473.6v-76.8zM166.4 140.8c-7.069 0-12.8 5.731-12.8 12.8v76.8c0 7.069 5.731 12.8 12.8 12.8h448c7.069 0 12.8-5.731 12.8-12.8v-76.8c0-7.069-5.731-12.8-12.8-12.8h-448zM601.6 166.4v51.2h-422.4v-51.2h422.4zM166.4 473.6c-7.069 0-12.8 5.731-12.8 12.8v76.8c0 7.069 5.731 12.8 12.8 12.8h691.2c7.069 0 12.8-5.731 12.8-12.8v-76.8c0-7.069-5.731-12.8-12.8-12.8h-691.2zM179.2 499.2h665.6v51.2h-665.6v-51.2zM230.4 217.6c-7.069 0-12.8 5.731-12.8 12.8v256c0 7.069 5.731 12.8 12.8 12.8h102.4c7.069 0 12.8-5.731 12.8-12.8v-256c0-7.069-5.731-12.8-12.8-12.8h-102.4zM243.2 243.2h76.8v230.4h-76.8v-230.4zM460.8 217.6c-7.069 0-12.8 5.731-12.8 12.8v256c0 7.069 5.731 12.8 12.8 12.8h102.4c7.069 0 12.8-5.731 12.8-12.8v-256c0-7.069-5.731-12.8-12.8-12.8h-102.4zM473.6 243.2h76.8v230.4h-76.8v-230.4zM691.2 371.2c-7.069 0-12.8 5.731-12.8 12.8v102.4c0 7.069 5.731 12.8 12.8 12.8h102.4c7.069 0 12.8-5.731 12.8-12.8v-102.4c0-7.069-5.731-12.8-12.8-12.8h-102.4zM704 396.8h76.8v76.8h-76.8v-76.8zM460.8 665.6c0-28.284 22.916-51.2 51.2-51.2s51.2 22.916 51.2 51.2c0 28.284-22.916 51.2-51.2 51.2s-51.2-22.916-51.2-51.2zM435.2 665.6c0 42.423 34.377 76.8 76.8 76.8s76.8-34.377 76.8-76.8c0-42.423-34.377-76.8-76.8-76.8s-76.8 34.377-76.8 76.8zM753.6 92.365l-90.618 90.618c-5.624 5.624-14.741 5.624-20.365 0s-5.624-14.741 0-20.365l115.192-115.192c5.623-5.623 14.74-5.624 20.364-0.001l115.208 115.192c5.624 5.623 5.625 14.741 0.001 20.365s-14.741 5.625-20.365 0.001l-90.618-90.606v205.419c0 7.953-6.447 14.4-14.4 14.4s-14.4-6.447-14.4-14.4v-205.432zM768-38.4c-127.246 0-230.4 103.154-230.4 230.4s103.154 230.4 230.4 230.4c127.246 0 230.4-103.154 230.4-230.4s-103.154-230.4-230.4-230.4z" />
<glyph unicode="&#xe91d;" glyph-name="asset-class-GOVERNMENT_BONDS_sell" d="M505.189 855.637c4.164 2.617 9.459 2.617 13.623 0l386.347-242.827c28.672-18.085 15.91-62.41-18.016-62.41h-750.285c-33.926 0-46.688 44.325-17.999 62.421l386.33 242.816zM512 829.682l-379.501-238.524c-6.98-4.403-3.884-15.158 4.359-15.158h750.285c8.242 0 11.339 10.755 4.376 15.147l-379.518 238.535zM115.2 38.4c-7.069 0-12.8 5.731-12.8 12.8v102.4c0 7.069 5.731 12.8 12.8 12.8h499.2c7.069 0 12.8-5.731 12.8-12.8v-102.4c0-7.069-5.731-12.8-12.8-12.8h-499.2zM128 64h473.6v76.8h-473.6v-76.8zM166.4 140.8c-7.069 0-12.8 5.731-12.8 12.8v76.8c0 7.069 5.731 12.8 12.8 12.8h448c7.069 0 12.8-5.731 12.8-12.8v-76.8c0-7.069-5.731-12.8-12.8-12.8h-448zM601.6 166.4v51.2h-422.4v-51.2h422.4zM166.4 473.6c-7.069 0-12.8 5.731-12.8 12.8v76.8c0 7.069 5.731 12.8 12.8 12.8h691.2c7.069 0 12.8-5.731 12.8-12.8v-76.8c0-7.069-5.731-12.8-12.8-12.8h-691.2zM179.2 499.2h665.6v51.2h-665.6v-51.2zM230.4 217.6c-7.069 0-12.8 5.731-12.8 12.8v256c0 7.069 5.731 12.8 12.8 12.8h102.4c7.069 0 12.8-5.731 12.8-12.8v-256c0-7.069-5.731-12.8-12.8-12.8h-102.4zM243.2 243.2h76.8v230.4h-76.8v-230.4zM460.8 217.6c-7.069 0-12.8 5.731-12.8 12.8v256c0 7.069 5.731 12.8 12.8 12.8h102.4c7.069 0 12.8-5.731 12.8-12.8v-256c0-7.069-5.731-12.8-12.8-12.8h-102.4zM473.6 243.2h76.8v230.4h-76.8v-230.4zM691.2 371.2c-7.069 0-12.8 5.731-12.8 12.8v102.4c0 7.069 5.731 12.8 12.8 12.8h102.4c7.069 0 12.8-5.731 12.8-12.8v-102.4c0-7.069-5.731-12.8-12.8-12.8h-102.4zM704 396.8h76.8v76.8h-76.8v-76.8zM460.8 665.6c0-28.284 22.916-51.2 51.2-51.2s51.2 22.916 51.2 51.2c0 28.284-22.916 51.2-51.2 51.2s-51.2-22.916-51.2-51.2zM435.2 665.6c0 42.423 34.377 76.8 76.8 76.8s76.8-34.377 76.8-76.8c0-42.423-34.377-76.8-76.8-76.8s-76.8 34.377-76.8 76.8zM782.4 272.431l90.618-90.606c5.624-5.623 14.742-5.623 20.365 0.001s5.623 14.742-0.001 20.365l-115.208 115.192c-5.624 5.623-14.741 5.623-20.364-0.001l-115.192-115.192c-5.624-5.624-5.624-14.741 0-20.365s14.741-5.624 20.365 0l90.618 90.618v-205.432c0-7.953 6.447-14.4 14.4-14.4s14.4 6.447 14.4 14.4v205.419zM768-38.4c-127.246 0-230.4 103.154-230.4 230.4s103.154 230.4 230.4 230.4c127.246 0 230.4-103.154 230.4-230.4s-103.154-230.4-230.4-230.4z" />
<glyph unicode="&#xe91e;" glyph-name="chart-growth" d="M140.8 332.8v-230.4h102.4v230.4h-102.4zM268.8 358.4v-281.6h-153.6v281.6h153.6zM345.6 435.2v-332.8h102.4v332.8h-102.4zM473.6 460.8v-384h-153.6v384h153.6zM550.4 537.6v-435.2h102.4v435.2h-102.4zM678.4 563.2v-486.4h-153.6v486.4h153.6zM755.2 640v-537.6h102.4v537.6h-102.4zM883.2 665.6v-588.8h-153.6v588.8h153.6zM177.404 492.774l512.225 260.992c6.728 3.428 9.58 11.313 6.371 17.612s-11.265 8.626-17.993 5.198l-512.225-260.992c-6.728-3.428-9.58-11.313-6.371-17.612s11.265-8.626 17.993-5.198zM686.038 799.413l26.942-46.664 33.194 50.274-60.135-3.61zM781.643 810.281l-58.71-88.921c-5.243-7.941-17.009-7.588-21.767 0.653l-47.653 82.537c-4.758 8.24 0.82 18.607 10.318 19.177l106.363 6.384c10.529 0.632 17.26-11.027 11.449-19.83z" />
<glyph unicode="&#xe91f;" glyph-name="action-hint" horiz-adv-x="683" d="M89.887 446.076c-43.971 56.003-68.553 123.571-68.553 193.924 0 173.104 151.001 320 320 320s320-146.896 320-320c0-71.156-25.152-139.508-68.794-194.103-41.015-63.834-77.847-143.65-110.389-239.427-2.939-8.651-11.062-14.47-20.199-14.47h-241.237c-9.126 0-17.241 5.805-20.189 14.442-32.707 95.815-69.608 175.671-110.639 239.635zM235.902 234.667h210.84c32.38 92.518 69.042 170.693 111.165 236.057 39.030 48.983 60.759 108.035 60.759 169.276 0 149.273-131.639 277.333-277.333 277.333s-277.333-128.061-277.333-277.333c0-61.068 21.602-119.916 60.441-168.837 0.889-1.119 1.642-2.281 2.268-3.472 40.555-63.53 76.911-141.175 109.193-233.025zM234.667 106.667v42.667h213.333v-42.667h-213.333zM234.667 149.333h213.333c28.444 0 28.444-42.667 0-42.667h-213.333c-28.444 0-28.444 42.667 0 42.667zM234.667 21.333v42.667h213.333v-42.667h-213.333zM234.667 64h213.333c28.444 0 28.444-42.667 0-42.667h-213.333c-28.444 0-28.444 42.667 0 42.667zM256-64v42.667h170.496v-42.667h-170.496zM256-21.333h170.496c28.444 0 28.444-42.667 0-42.667h-170.496c-28.444 0-28.444 42.667 0 42.667z" />
<glyph unicode="&#xe920;" glyph-name="navigation-logout" d="M512 76.8c-205.008 0-371.2 166.192-371.2 371.2s166.192 371.2 371.2 371.2c205.008 0 371.2-166.192 371.2-371.2s-166.192-371.2-371.2-371.2zM512 102.4c190.87 0 345.6 154.73 345.6 345.6s-154.73 345.6-345.6 345.6c-190.87 0-345.6-154.73-345.6-345.6s154.73-345.6 345.6-345.6zM373.663 586.337c4.999 4.999 13.103 4.999 18.102 0s4.999-13.103 0-18.102c-64.983-64.983-64.983-170.342 0-235.325s170.342-64.983 235.325 0c64.983 64.983 64.983 170.342 0 235.325-4.999 4.999-4.999 13.103 0 18.102s13.103 4.999 18.102 0c74.981-74.981 74.981-196.548 0-271.529s-196.548-74.981-271.529 0c-74.981 74.981-74.981 196.548 0 271.529zM499.2 665.6c0 7.069 5.731 12.8 12.8 12.8s12.8-5.731 12.8-12.8v-179.2c0-7.069-5.731-12.8-12.8-12.8s-12.8 5.731-12.8 12.8v179.2z" />
<glyph unicode="&#xe921;" glyph-name="navigation-portfolio" d="M128 704v-614.4h768v614.4h-768zM102.4 729.6h819.2v-665.6h-819.2v665.6zM409.6 832v-102.4h204.8v102.4h-204.8zM384 857.6h256v-153.6h-256v153.6zM409.6 832v-25.6h204.8v25.6h-204.8zM384 857.6h256v-76.8h-256v76.8zM513.999 206.909c7.068 0.123 12.898-5.507 13.021-12.575s-5.507-12.898-12.575-13.021c-118.169-2.062-215.644 92.060-217.702 210.224-2.079 118.169 92.044 215.649 210.21 217.711 7.068 0.123 12.898-5.507 13.021-12.575s-5.507-12.898-12.575-13.021c-104.028-1.815-186.89-87.633-185.060-191.667 1.812-104.028 87.627-186.891 191.66-185.075zM506.955 609.247c7.068 0.124 12.899-5.505 13.023-12.573s-5.505-12.899-12.573-13.023c-37.392-0.657-85.681-121.552-84.486-189.906 1.19-68.345 53.692-187.488 91.085-186.836 7.068 0.123 12.898-5.507 13.021-12.575s-5.507-12.898-12.575-13.021c-57.601-1.003-115.714 130.875-117.127 211.986-1.418 81.121 52.033 214.937 109.633 215.948zM494.382 596.225c-0.124 7.068 5.506 12.898 12.574 13.022s12.898-5.506 13.022-12.574l7.046-402.338c0.124-7.068-5.506-12.898-12.574-13.022s-12.898 5.506-13.022 12.574l-7.046 402.338zM507.404 583.651c-7.068-0.124-12.899 5.505-13.023 12.573s5.505 12.899 12.573 13.023c57.604 1.011 115.719-130.864 117.132-211.977 1.424-81.121-52.033-214.946-109.636-215.957-7.068-0.124-12.899 5.505-13.023 12.573s5.505 12.899 12.573 13.023c37.395 0.657 85.69 121.558 84.49 189.914-1.19 68.347-53.692 187.485-91.086 186.828zM507.404 583.651c-7.068-0.124-12.898 5.506-13.022 12.574s5.506 12.898 12.574 13.022c118.176 2.067 215.647-92.048 217.714-210.22 2.070-118.17-92.049-215.648-210.22-217.714-7.068-0.124-12.898 5.506-13.022 12.574s5.506 12.898 12.574 13.022c104.034 1.819 186.894 87.636 185.072 191.67-1.819 104.036-87.63 186.891-191.67 185.072zM309.761 378.963c-7.068-0.124-12.898 5.506-13.022 12.574s5.506 12.898 12.574 13.022l402.338 7.046c7.068 0.124 12.898-5.506 13.022-12.574s-5.506-12.898-12.574-13.022l-402.338-7.046zM335.737 481.449c-7.068-0.124-12.898 5.506-13.022 12.574s5.506 12.898 12.574 13.022l346.821 6.073c7.068 0.124 12.898-5.506 13.022-12.574s-5.506-12.898-12.574-13.022l-346.821-6.073zM339.31 277.453c-7.068-0.124-12.898 5.506-13.022 12.574s5.506 12.898 12.574 13.022l346.818 6.065c7.068 0.124 12.898-5.506 13.022-12.574s-5.506-12.898-12.574-13.022l-346.818-6.065z" />
<glyph unicode="&#xe922;" glyph-name="chart-range" d="M0 435.2l230.4-115.2v230.4l-230.4-115.2zM1024 435.2l-230.4 115.2v-230.4l230.4 115.2zM217.6 422.4h601.6v25.6h-614.4v-25.6h12.8z" />
<glyph unicode="&#xe923;" glyph-name="navigation-settings" d="M385.080 713.715l-8.171-3.91-56.642 56.642c-4.999 4.999-13.103 4.999-18.102 0l-108.612-108.612c-4.999-4.999-4.999-13.103 0-18.102l56.642-56.642-3.91-8.171c-4.484-9.37-8.469-18.978-11.936-28.786l-3.016-8.534h-77.732c-7.069 0-12.8-5.731-12.8-12.8v-153.6c0-7.069 5.731-12.8 12.8-12.8h77.732l3.016-8.534c3.86-10.92 8.362-21.591 13.48-31.962l4.060-8.228-58.335-58.335c-4.999-4.999-4.999-13.103 0-18.102l108.612-108.612c4.999-4.999 13.103-4.999 18.102 0l59.908 59.908 8.113-3.762c8.352-3.873 16.886-7.353 25.578-10.425l8.534-3.016v-77.732c0-7.069 5.731-12.8 12.8-12.8h153.6c7.069 0 12.8 5.731 12.8 12.8v77.732l8.534 3.016c9.817 3.47 19.433 7.459 28.811 11.948l8.578 4.106 6.407-7.028c0.137-0.148 18.38-18.398 54.728-54.747 4.999-4.999 13.103-4.999 18.102 0l108.612 108.612c4.999 4.999 4.999 13.103 0 18.102l-54.306 54.306c-0.146 0.144-2.636 2.42-7.469 6.829l4.106 8.578c4.489 9.378 8.478 18.994 11.948 28.811l3.016 8.534h77.732c7.069 0 12.8 5.731 12.8 12.8v153.6c0 7.069-5.731 12.8-12.8 12.8h-77.732l-3.016 8.534c-3.072 8.692-6.552 17.226-10.425 25.578l-3.762 8.113 59.908 59.908c4.999 4.999 4.999 13.103 0 18.102l-108.612 108.612c-4.999 4.999-13.103 4.999-18.102 0l-58.335-58.335-8.228 4.060c-10.371 5.118-21.041 9.62-31.962 13.48l-8.534 3.016v77.732c0 7.069-5.731 12.8-12.8 12.8h-153.6c-7.069 0-12.8-5.731-12.8-12.8v-77.732l-8.534-3.016c-9.808-3.467-19.416-7.452-28.786-11.936zM396.8 746.633v59.767c0 21.208 17.192 38.4 38.4 38.4h153.6c21.208 0 38.4-17.192 38.4-38.4v-59.767c6.044-2.333 12.012-4.849 17.897-7.544l45.46 45.46c14.996 14.996 39.31 14.996 54.306 0l108.612-108.612c14.996-14.996 14.996-39.31 0-54.306l-47.357-47.357c1.574-3.662 3.080-7.354 4.516-11.075h59.767c21.208 0 38.4-17.192 38.4-38.4v-153.6c0-21.208-17.192-38.4-38.4-38.4h-59.767c-1.886-4.885-3.891-9.72-6.013-14.503l48.854-48.854c14.996-14.996 14.996-39.31 0-54.306l-108.612-108.612c-14.996-14.996-39.31-14.996-54.306 0l-48.854 48.854c-4.782-2.123-9.618-4.128-14.503-6.013v-59.767c0-21.208-17.192-38.4-38.4-38.4h-153.6c-21.208 0-38.4 17.192-38.4 38.4v59.767c-3.721 1.436-7.413 2.942-11.075 4.516l-47.357-47.357c-14.996-14.996-39.31-14.996-54.306 0l-108.612 108.612c-14.996 14.996-14.996 39.31 0 54.306l45.46 45.46c-2.695 5.885-5.211 11.853-7.544 17.897h-59.767c-21.208 0-38.4 17.192-38.4 38.4v153.6c0 21.208 17.192 38.4 38.4 38.4h59.767c1.886 4.885 3.891 9.72 6.013 14.503l-43.929 43.929c-14.996 14.996-14.996 39.31 0 54.306l108.612 108.612c14.996 14.996 39.31 14.996 54.306 0l43.929-43.929c4.782 2.123 9.618 4.128 14.503 6.013zM512 256c-106.039 0-192 85.961-192 192s85.961 192 192 192c106.039 0 192-85.961 192-192s-85.961-192-192-192zM512 281.6c91.9 0 166.4 74.5 166.4 166.4s-74.5 166.4-166.4 166.4c-91.9 0-166.4-74.5-166.4-166.4s74.5-166.4 166.4-166.4z" />
<glyph unicode="&#xe924;" glyph-name="transaction-tax_EUR" d="M449.152 270.72c-3.328-5.632-7.552-8.448-12.672-8.448-3.328 0-6.208 1.152-8.64 3.456s-3.648 5.376-3.648 9.216c0 3.072 0.896 6.016 2.688 8.832l146.688 253.824c3.328 5.632 7.552 8.448 12.672 8.448 3.328 0 6.208-1.216 8.64-3.648s3.648-5.44 3.648-9.024c0-2.816-0.768-5.76-2.304-8.832l-147.072-253.824zM419.2 377.088c-20.48 0-36.48 6.976-48 20.928s-17.28 34.624-17.28 62.016c0 27.136 5.76 47.68 17.28 61.632s27.52 20.928 48 20.928c20.48 0 36.48-6.976 48-20.928s17.28-34.496 17.28-61.632c0-27.392-5.76-48.064-17.28-62.016s-27.52-20.928-48-20.928zM419.2 399.36c12.544 0 21.824 4.864 27.84 14.592s9.024 25.088 9.024 46.080c0 20.736-3.008 35.968-9.024 45.696s-15.296 14.592-27.84 14.592c-12.544 0-21.888-4.864-28.032-14.592s-9.216-24.96-9.216-45.696c0-20.992 3.072-36.352 9.216-46.080s15.488-14.592 28.032-14.592zM603.52 266.112c-20.48 0-36.48 6.976-48 20.928s-17.28 34.624-17.28 62.016c0 27.136 5.76 47.68 17.28 61.632s27.52 20.928 48 20.928c20.736 0 36.8-6.912 48.192-20.736s17.088-34.432 17.088-61.824c0-27.392-5.696-48.064-17.088-62.016s-27.456-20.928-48.192-20.928zM603.52 288.384c12.8 0 22.208 4.8 28.224 14.4s9.024 25.024 9.024 46.272c0 20.736-3.072 35.968-9.216 45.696s-15.488 14.592-28.032 14.592c-12.544 0-21.824-4.864-27.84-14.592s-9.024-24.96-9.024-45.696c0-20.992 3.008-36.352 9.024-46.080s15.296-14.592 27.84-14.592zM896 63.974h-768v749.22l77.34-79.732c5.028-5.183 13.346-5.184 18.374-0.001l90.158 92.922 89.963-92.912c5.030-5.195 13.362-5.195 18.392 0l89.953 92.903 89.953-92.903c5.030-5.195 13.362-5.195 18.392 0l89.954 92.904 89.979-92.905c5.030-5.194 13.361-5.193 18.39 0.001l77.153 79.683v-749.179zM214.529 760.757l-90.141 92.929c-8.005 8.253-21.988 2.586-21.988-8.912v-793.6c0-7.069 5.731-12.8 12.8-12.8h793.6c7.069 0 12.8 5.731 12.8 12.8v793.6c0 11.503-13.994 17.168-21.996 8.904l-89.954-92.904-89.979 92.905c-5.030 5.194-13.361 5.193-18.39-0.001l-89.953-92.903-89.953 92.903c-5.030 5.195-13.362 5.195-18.392 0l-89.953-92.903-89.953 92.903c-5.026 5.191-13.351 5.195-18.382 0.009l-90.166-92.931z" />
<glyph unicode="&#xe925;" glyph-name="transaction-withdrawal_EUR" d="M512 813.903v-545.113c0-7.069-5.731-12.8-12.8-12.8s-12.8 5.731-12.8 12.8v545.108l-204.425-204.425c-4.999-4.999-13.103-4.999-18.102 0s-4.999 13.103 0 18.102l226.278 226.278c4.999 4.999 13.103 4.999 18.102 0l226.278-226.278c4.999-4.999 4.999-13.103 0-18.102s-13.103-4.999-18.102 0l-204.43 204.43zM896 256c0 7.069 5.731 12.8 12.8 12.8s12.8-5.731 12.8-12.8v-154.624c0-34.666-28.31-62.976-62.976-62.976h-693.248c-34.666 0-62.976 28.31-62.976 62.976v154.624c0 7.069 5.731 12.8 12.8 12.8s12.8-5.731 12.8-12.8v-154.624c0-20.528 16.848-37.376 37.376-37.376h693.248c20.528 0 37.376 16.848 37.376 37.376v154.624z" />
<glyph unicode="&#xe926;" glyph-name="asset-class-CASH" d="M442.926 64c9.801 0 17.869 8.068 17.869 17.869v41.062c0 9.801-8.068 17.869-17.869 17.869h-297.062c-9.801 0-17.869-8.068-17.869-17.869v-41.062c0-9.801 8.068-17.869 17.869-17.869h297.062zM442.926 38.4h-297.062c-23.94 0-43.469 19.529-43.469 43.469v41.062c0 23.94 19.529 43.469 43.469 43.469h297.062c23.94 0 43.469-19.529 43.469-43.469v-41.062c0-23.94-19.529-43.469-43.469-43.469zM442.926 166.4c9.801 0 17.869 8.068 17.869 17.869v41.062c0 9.801-8.068 17.869-17.869 17.869h-297.062c-9.801 0-17.869-8.068-17.869-17.869v-41.062c0-9.801 8.068-17.869 17.869-17.869h297.062zM442.926 140.8h-297.062c-23.94 0-43.469 19.529-43.469 43.469v41.062c0 23.94 19.529 43.469 43.469 43.469h297.062c23.94 0 43.469-19.529 43.469-43.469v-41.062c0-23.94-19.529-43.469-43.469-43.469zM442.926 268.8c9.801 0 17.869 8.068 17.869 17.869v41.062c0 9.801-8.068 17.869-17.869 17.869h-297.062c-9.801 0-17.869-8.068-17.869-17.869v-41.062c0-9.801 8.068-17.869 17.869-17.869h297.062zM442.926 243.2h-297.062c-23.94 0-43.469 19.529-43.469 43.469v41.062c0 23.94 19.529 43.469 43.469 43.469h297.062c23.94 0 43.469-19.529 43.469-43.469v-41.062c0-23.94-19.529-43.469-43.469-43.469zM878.126 64c9.801 0 17.869 8.068 17.869 17.869v41.062c0 9.801-8.068 17.869-17.869 17.869h-297.062c-9.801 0-17.869-8.068-17.869-17.869v-41.062c0-9.801 8.068-17.869 17.869-17.869h297.062zM878.126 38.4h-297.062c-23.94 0-43.469 19.529-43.469 43.469v41.062c0 23.94 19.529 43.469 43.469 43.469h297.062c23.94 0 43.469-19.529 43.469-43.469v-41.062c0-23.94-19.529-43.469-43.469-43.469zM738.54 857.599c44.202-0.569 68.863-54.209 44.669-92.965l-44.309-71.078h-274.635l-44.283 70.999c-24.2 38.797 0.476 92.477 44.883 93.046 17.932 0 27.096-3.354 41.658-12.243 10.914-6.662 15.916-8.493 27.283-8.493 11.374 0 16.374 1.833 27.268 8.49 14.554 8.894 23.698 12.246 40.598 12.246 16.906 0 26.048-3.353 40.596-12.247 10.892-6.658 15.883-8.489 27.244-8.489 11.374 0 16.374 1.833 27.268 8.49 14.554 8.894 23.698 12.246 40.598 12.246l1.163-0.001zM710.138 823.516c-14.56-8.898-23.711-12.252-40.626-12.252-16.906 0-26.048 3.353-40.596 12.247-10.892 6.658-15.883 8.489-27.244 8.489-11.358 0-16.351-1.831-27.239-8.484-14.56-8.898-23.711-12.252-40.626-12.252-16.903 0-26.053 3.35-40.602 12.231-10.927 6.67-15.942 8.505-27.341 8.505-24.079-0.298-38.299-31.231-24.16-53.898l36.766-58.947h246.223l36.797 59.028c14.113 22.607-0.043 53.453-23.204 53.817-12.266 0-17.259-1.831-28.147-8.484zM478.56 600.294l-141.431-234.022c-2.522-4.154-4.82-8.238-6.882-12.245l-22.763 11.714c2.345 4.557 4.936 9.162 7.748 13.794l148.887 246.359h274.946l148.911-246.356c43.542-72.002 44.138-160.224 5.788-231.973l-22.577 12.068c34.179 63.946 33.648 142.555-5.118 206.66l-141.443 234.001h-246.066zM459.788 39.899c-7.015 0.877-11.99 7.274-11.114 14.289s7.274 11.99 14.289 11.114c6.948-0.868 13.969-1.309 21.043-1.309h117.606c7.069 0 12.8-5.731 12.8-12.8s-5.731-12.8-12.8-12.8h-117.606c-8.14 0-16.221 0.507-24.218 1.507zM537.6 768c0 7.069 5.731 12.8 12.8 12.8s12.8-5.731 12.8-12.8v-51.2c0-7.069-5.731-12.8-12.8-12.8s-12.8 5.731-12.8 12.8v51.2zM640 768c0 7.069 5.731 12.8 12.8 12.8s12.8-5.731 12.8-12.8v-51.2c0-7.069-5.731-12.8-12.8-12.8s-12.8 5.731-12.8 12.8v51.2zM537.6 614.4c0 7.069 5.731 12.8 12.8 12.8s12.8-5.731 12.8-12.8v-51.2c0-7.069-5.731-12.8-12.8-12.8s-12.8 5.731-12.8 12.8v51.2zM640 614.4c0 7.069 5.731 12.8 12.8 12.8s12.8-5.731 12.8-12.8v-51.2c0-7.069-5.731-12.8-12.8-12.8s-12.8 5.731-12.8 12.8v51.2zM716.925 629.55c17.676 0 32 14.33 32 32 0 17.686-14.314 32-32 32h-230.656c-17.686 0-32-14.314-32-32 0-17.67 14.324-32 32-32h230.656zM716.925 603.95h-230.656c-31.817 0-57.6 25.793-57.6 57.6 0 31.824 25.776 57.6 57.6 57.6h230.656c31.824 0 57.6-25.776 57.6-57.6 0-31.807-25.783-57.6-57.6-57.6zM499.2 294.4c0-56.547 45.853-102.4 102.4-102.4s102.4 45.853 102.4 102.4c0 56.547-45.853 102.4-102.4 102.4s-102.4-45.853-102.4-102.4zM473.6 294.4c0 70.685 57.315 128 128 128s128-57.315 128-128c0-70.685-57.315-128-128-128s-128 57.315-128 128z" />
<glyph unicode="&#xe927;" glyph-name="asset-class-COMMODITIES" d="M140.797 64h151.578c7.069 0 12.8-5.731 12.8-12.8s-5.731-12.8-12.8-12.8h-164.378c-7.069 0-12.8 5.731-12.8 12.8v793.6c0 7.069 5.731 12.8 12.8 12.8h486.4c7.069 0 12.8-5.731 12.8-12.8v-446.387c0-7.069-5.731-12.8-12.8-12.8s-12.8 5.731-12.8 12.8v433.587h-460.8v-768zM614.4 563.2v-51.2c14.157 0 25.6 11.443 25.6 25.6s-11.443 25.6-25.6 25.6zM102.4 537.6c0-14.157 11.443-25.6 25.6-25.6v51.2c-14.157 0-25.6-11.443-25.6-25.6zM102.4 332.8c0-14.157 11.443-25.6 25.6-25.6v51.2c-14.157 0-25.6-11.443-25.6-25.6zM614.4 857.6h-486.4c-14.157 0-25.6-11.443-25.6-25.6s11.443-25.6 25.6-25.6h486.4c14.157 0 25.6 11.443 25.6 25.6s-11.443 25.6-25.6 25.6zM128 89.6c-14.157 0-25.6-11.443-25.6-25.6s11.443-25.6 25.6-25.6h179.2v51.2h-179.2zM128 320c-7.069 0-12.8 5.731-12.8 12.8s5.731 12.8 12.8 12.8h128c7.069 0 12.8-5.731 12.8-12.8s-5.731-12.8-12.8-12.8h-128zM128 524.8c-7.069 0-12.8 5.731-12.8 12.8s5.731 12.8 12.8 12.8h128c7.069 0 12.8-5.731 12.8-12.8s-5.731-12.8-12.8-12.8h-128zM486.4 524.8c-7.069 0-12.8 5.731-12.8 12.8s5.731 12.8 12.8 12.8h128c7.069 0 12.8-5.731 12.8-12.8s-5.731-12.8-12.8-12.8h-128zM869.584 153.6h-126.368l-22.758-89.6h171.885l-22.758 89.6zM908.8 38.4h-204.8c-8.347 0-14.461 7.861-12.406 15.951l29.261 115.2c1.442 5.675 6.55 9.649 12.406 9.649h146.278c5.856 0 10.965-3.974 12.406-9.649l29.261-115.2c2.055-8.090-4.059-15.951-12.406-15.951zM664.784 153.6h-126.368l-22.758-89.6h171.885l-22.758 89.6zM704 38.4h-204.8c-8.347 0-14.461 7.861-12.406 15.951l29.261 115.2c1.442 5.675 6.55 9.649 12.406 9.649h146.278c5.856 0 10.965-3.974 12.406-9.649l29.261-115.2c2.055-8.090-4.059-15.951-12.406-15.951zM459.984 153.6h-126.368l-22.758-89.6h171.885l-22.758 89.6zM499.2 38.4h-204.8c-8.347 0-14.461 7.861-12.406 15.951l29.261 115.2c1.442 5.675 6.55 9.649 12.406 9.649h146.278c5.856 0 10.965-3.974 12.406-9.649l29.261-115.2c2.055-8.090-4.059-15.951-12.406-15.951zM767.184 268.8h-126.368l-22.758-89.6h171.885l-22.758 89.6zM806.4 153.6h-204.8c-8.347 0-14.461 7.861-12.406 15.951l29.261 115.2c1.442 5.675 6.55 9.649 12.406 9.649h146.278c5.856 0 10.965-3.974 12.406-9.649l29.261-115.2c2.055-8.090-4.059-15.951-12.406-15.951zM562.384 268.8h-126.368l-22.758-89.6h171.885l-22.758 89.6zM601.6 153.6h-204.8c-8.347 0-14.461 7.861-12.406 15.951l29.261 115.2c1.442 5.675 6.55 9.649 12.406 9.649h146.278c5.856 0 10.965-3.974 12.406-9.649l29.261-115.2c2.055-8.090-4.059-15.951-12.406-15.951zM687.542 294.4l-22.758 89.6h-126.368l-22.758-89.6h171.885zM704 268.8h-204.8c-8.347 0-14.461 7.861-12.406 15.951l29.261 115.2c1.442 5.675 6.55 9.649 12.406 9.649h146.278c5.856 0 10.965-3.974 12.406-9.649l29.261-115.2c2.055-8.090-4.059-15.951-12.406-15.951zM678.4 166.4l25.6-115.2 25.6 115.2zM473.6 166.4l25.6-115.2 25.6 115.2zM576 281.6l25.6-115.2 25.6 115.2zM742.4 512c-7.069 0-12.8 5.731-12.8 12.8s5.731 12.8 12.8 12.8h76.8c7.069 0 12.8-5.731 12.8-12.8s-5.731-12.8-12.8-12.8h-76.8zM793.6 473.6c0-7.069-5.731-12.8-12.8-12.8s-12.8 5.731-12.8 12.8v102.4c0 7.069 5.731 12.8 12.8 12.8s12.8-5.731 12.8-12.8v-102.4zM825.6 332.8c-7.069 0-12.8 5.731-12.8 12.8s5.731 12.8 12.8 12.8h51.2c7.069 0 12.8-5.731 12.8-12.8s-5.731-12.8-12.8-12.8h-51.2zM864 320c0-7.069-5.731-12.8-12.8-12.8s-12.8 5.731-12.8 12.8v51.2c0 7.069 5.731 12.8 12.8 12.8s12.8-5.731 12.8-12.8v-51.2zM230.4 435.2c0-77.744 63.056-140.8 140.8-140.8s140.8 63.056 140.8 140.8c0 77.744-63.056 140.8-140.8 140.8s-140.8-63.056-140.8-140.8zM204.8 435.2c0 91.882 74.518 166.4 166.4 166.4s166.4-74.518 166.4-166.4c0-91.882-74.518-166.4-166.4-166.4s-166.4 74.518-166.4 166.4z" />
<glyph unicode="&#xe928;" glyph-name="asset-class-EQUITIES" d="M396.8 243.2c7.069 0 12.8-5.731 12.8-12.8s-5.731-12.8-12.8-12.8h-231.424c-34.666 0-62.976 28.31-62.976 62.976v514.048c0 34.666 28.31 62.976 62.976 62.976h693.248c34.666 0 62.976-28.31 62.976-62.976v-514.048c0-34.666-28.31-62.976-62.976-62.976h-205.824c-7.069 0-12.8 5.731-12.8 12.8s5.731 12.8 12.8 12.8h205.824c20.528 0 37.376 16.848 37.376 37.376v514.048c0 20.528-16.848 37.376-37.376 37.376h-693.248c-20.528 0-37.376-16.848-37.376-37.376v-514.048c0-20.528 16.848-37.376 37.376-37.376h231.424zM409.6 256c0-63.638 51.562-115.2 115.2-115.2s115.2 51.562 115.2 115.2c0 63.638-51.562 115.2-115.2 115.2s-115.2-51.562-115.2-115.2zM384 256c0 77.776 63.024 140.8 140.8 140.8s140.8-63.024 140.8-140.8c0-77.776-63.024-140.8-140.8-140.8s-140.8 63.024-140.8 140.8zM486.4 256c0-21.193 17.207-38.4 38.4-38.4s38.4 17.207 38.4 38.4c0 21.193-17.207 38.4-38.4 38.4s-38.4-17.207-38.4-38.4zM460.8 256c0 35.332 28.668 64 64 64s64-28.668 64-64c0-35.332-28.668-64-64-64s-64 28.668-64 64zM320 576c-7.069 0-12.8 5.731-12.8 12.8s5.731 12.8 12.8 12.8h384c7.069 0 12.8-5.731 12.8-12.8s-5.731-12.8-12.8-12.8h-384zM320 473.6c-7.069 0-12.8 5.731-12.8 12.8s5.731 12.8 12.8 12.8h384c7.069 0 12.8-5.731 12.8-12.8s-5.731-12.8-12.8-12.8h-384zM477.501 138.849c3.161 6.323 10.85 8.886 17.173 5.724s8.886-10.85 5.724-17.173l-40.96-81.92c-2.168-4.336-6.6-7.076-11.449-7.076h-128c-9.516 0-15.704 10.014-11.448 18.525l82.893 165.76c3.162 6.323 10.851 8.885 17.173 5.723s8.885-10.851 5.723-17.173l-73.629-147.235h99.377l37.422 74.844zM635.295 211.139c-3.163 6.322-0.601 14.011 5.721 17.174s14.011 0.601 17.174-5.721l82.867-165.658c4.257-8.511-1.931-18.526-11.448-18.526h-128c-4.847 0-9.278 2.738-11.447 7.073l-40.934 81.818c-3.163 6.322-0.602 14.011 5.72 17.174s14.011 0.602 17.174-5.72l37.396-74.745h99.376l-73.6 147.131zM422.451 345.6c7.069 0 12.8-5.731 12.8-12.8s-5.731-12.8-12.8-12.8h-181.709c-19.792 0-35.942 16.15-35.942 35.942v363.315c0 19.792 16.15 35.942 35.942 35.942h542.515c19.792 0 35.942-16.15 35.942-35.942v-363.315c0-19.792-16.15-35.942-35.942-35.942h-156.134c-7.069 0-12.8 5.731-12.8 12.8s5.731 12.8 12.8 12.8h156.134c5.654 0 10.342 4.688 10.342 10.342v363.315c0 5.654-4.688 10.342-10.342 10.342h-542.515c-5.654 0-10.342-4.688-10.342-10.342v-363.315c0-5.654 4.688-10.342 10.342-10.342h181.709z" />
<glyph unicode="&#xe929;" glyph-name="transaction-fees_EUR" d="M896 82.821v749.179h-768v-749.22l77.34 79.732c5.028 5.183 13.346 5.184 18.374 0.001l90.158-92.922 89.963 92.912c5.030 5.195 13.362 5.195 18.392 0l89.953-92.903 89.953 92.903c5.030 5.195 13.362 5.195 18.392 0l89.954-92.904 89.979 92.905c5.030 5.194 13.361 5.193 18.39-0.001l77.153-79.683zM214.529 135.217l-90.141-92.929c-8.005-8.253-21.988-2.586-21.988 8.912v793.6c0 7.069 5.731 12.8 12.8 12.8h793.6c7.069 0 12.8-5.731 12.8-12.8v-793.6c0-11.503-13.994-17.168-21.996-8.904l-89.954 92.904-89.979-92.905c-5.030-5.194-13.361-5.193-18.39 0.001l-89.953 92.903-89.953-92.903c-5.030-5.195-13.362-5.195-18.392 0l-89.953 92.903-89.953-92.903c-5.026-5.191-13.351-5.195-18.382-0.009l-90.166 92.931zM597.504 433.92c3.072 0 5.568-1.28 7.488-3.84s2.88-5.76 2.88-9.6c0-4.864-2.048-9.216-6.144-13.056-11.264-9.984-23.744-17.728-37.44-23.232s-26.944-8.256-39.744-8.256c-26.368 0-47.936 8.512-64.704 25.536s-27.584 41.28-32.448 72.768h-31.872c-3.328 0-6.080 1.088-8.256 3.264s-3.264 4.8-3.264 7.872c0 3.328 1.088 6.080 3.264 8.256s4.928 3.264 8.256 3.264h29.184c-0.256 3.84-0.384 9.728-0.384 17.664s0.128 13.824 0.384 17.664h-29.184c-3.328 0-6.080 1.088-8.256 3.264s-3.264 4.928-3.264 8.256c0 3.328 1.088 6.016 3.264 8.064s4.928 3.072 8.256 3.072h31.872c5.12 31.488 16 55.68 32.64 72.576s38.144 25.344 64.512 25.344c13.312 0 26.88-2.624 40.704-7.872s25.984-13.12 36.48-23.616c4.096-3.84 6.144-8.192 6.144-13.056 0-3.84-1.024-7.040-3.072-9.6s-4.48-3.84-7.296-3.84c-4.096 0-7.808 1.408-11.136 4.224-10.496 9.728-20.608 16.64-30.336 20.736s-19.968 6.144-30.72 6.144c-36.864 0-59.136-23.68-66.816-71.040h58.368c3.328 0 6.080-1.024 8.256-3.072s3.264-4.736 3.264-8.064c0-3.328-1.088-6.080-3.264-8.256s-4.928-3.264-8.256-3.264h-60.672c-0.256-3.84-0.384-9.728-0.384-17.664s0.128-13.824 0.384-17.664h60.672c3.584 0 6.4-1.024 8.448-3.072s3.072-4.864 3.072-8.448c0-3.072-1.088-5.696-3.264-7.872s-4.928-3.264-8.256-3.264h-58.368c7.168-47.616 29.44-71.424 66.816-71.424 9.728 0 19.136 2.112 28.224 6.336s20.032 11.072 32.832 20.544c4.352 2.816 8.064 4.224 11.136 4.224z" />
<glyph unicode="&#xe92a;" glyph-name="transaction-fees_GBP" d="M896 82.821v749.179h-768v-749.22l77.34 79.732c5.028 5.183 13.346 5.184 18.374 0.001l90.158-92.922 89.963 92.912c5.030 5.195 13.362 5.195 18.392 0l89.953-92.903 89.953 92.903c5.030 5.195 13.362 5.195 18.392 0l89.954-92.904 89.979 92.905c5.030 5.194 13.361 5.193 18.39-0.001l77.153-79.683zM214.529 135.217l-90.141-92.929c-8.005-8.253-21.988-2.586-21.988 8.912v793.6c0 7.069 5.731 12.8 12.8 12.8h793.6c7.069 0 12.8-5.731 12.8-12.8v-793.6c0-11.503-13.994-17.168-21.996-8.904l-89.954 92.904-89.979-92.905c-5.030-5.194-13.361-5.193-18.39 0.001l-89.953 92.903-89.953-92.903c-5.030-5.195-13.362-5.195-18.392 0l-89.953 92.903-89.953-92.903c-5.026-5.191-13.351-5.195-18.382-0.009l-90.166 92.931zM608.538 402.048c2.56-2.33 3.814-5.53 3.814-9.6 0-4.378-1.254-7.706-3.814-10.010-2.586-2.278-6.144-3.43-10.752-3.43h-173.568c-4.608 0-8.218 1.152-10.752 3.43-2.56 2.304-3.866 5.632-3.866 10.010 0 4.070 1.306 7.27 3.866 9.6 2.534 2.304 6.144 3.456 10.752 3.456h26.112v97.92h-29.184c-3.328 0-6.093 0.998-8.269 3.072-2.176 2.022-3.277 4.736-3.277 8.064 0 3.302 1.101 6.016 3.277 8.064 2.176 2.022 4.941 3.072 8.269 3.072h29.184v53.376c0 22.528 6.579 40.422 19.789 53.76 13.158 13.286 31.386 19.968 54.682 19.968 15.386 0 30.106-2.816 44.186-8.448 14.080-5.658 26.496-13.466 37.248-23.424 4.070-3.866 6.118-8.32 6.118-13.466 0-3.558-1.024-6.707-3.046-9.395-2.048-2.688-4.506-4.019-7.296-4.019-3.072 0-6.682 1.408-10.752 4.224-12.544 10.214-23.859 17.459-33.997 21.683-10.086 4.224-20.685 6.349-31.667 6.349-13.312 0-23.936-4.019-31.872-12.109-7.936-8.064-11.904-20.557-11.904-37.453v-51.046h60.672c3.328 0 6.067-1.050 8.243-3.072 2.176-2.048 3.277-4.762 3.277-8.064 0-3.328-1.101-6.042-3.277-8.064-2.176-2.074-4.915-3.072-8.243-3.072h-60.672v-97.92h115.968c4.608 0 8.166-1.152 10.752-3.456z" />
<glyph unicode="&#xe92b;" glyph-name="asset-class-GOVERNMENT_BONDS" d="M505.189 855.637c4.164 2.617 9.459 2.617 13.623 0l386.347-242.827c28.672-18.085 15.91-62.41-18.016-62.41h-750.285c-33.926 0-46.688 44.325-17.999 62.421l386.33 242.816zM512 829.682l-379.501-238.524c-6.98-4.403-3.884-15.158 4.359-15.158h750.285c8.242 0 11.339 10.755 4.376 15.147l-379.518 238.535zM115.2 38.4c-7.069 0-12.8 5.731-12.8 12.8v102.4c0 7.069 5.731 12.8 12.8 12.8h793.6c7.069 0 12.8-5.731 12.8-12.8v-102.4c0-7.069-5.731-12.8-12.8-12.8h-793.6zM128 64h768v76.8h-768v-76.8zM166.4 140.8c-7.069 0-12.8 5.731-12.8 12.8v76.8c0 7.069 5.731 12.8 12.8 12.8h691.2c7.069 0 12.8-5.731 12.8-12.8v-76.8c0-7.069-5.731-12.8-12.8-12.8h-691.2zM179.2 166.4h665.6v51.2h-665.6v-51.2zM166.4 473.6c-7.069 0-12.8 5.731-12.8 12.8v76.8c0 7.069 5.731 12.8 12.8 12.8h691.2c7.069 0 12.8-5.731 12.8-12.8v-76.8c0-7.069-5.731-12.8-12.8-12.8h-691.2zM179.2 499.2h665.6v51.2h-665.6v-51.2zM230.4 217.6c-7.069 0-12.8 5.731-12.8 12.8v256c0 7.069 5.731 12.8 12.8 12.8h102.4c7.069 0 12.8-5.731 12.8-12.8v-256c0-7.069-5.731-12.8-12.8-12.8h-102.4zM243.2 243.2h76.8v230.4h-76.8v-230.4zM460.8 217.6c-7.069 0-12.8 5.731-12.8 12.8v256c0 7.069 5.731 12.8 12.8 12.8h102.4c7.069 0 12.8-5.731 12.8-12.8v-256c0-7.069-5.731-12.8-12.8-12.8h-102.4zM473.6 243.2h76.8v230.4h-76.8v-230.4zM691.2 217.6c-7.069 0-12.8 5.731-12.8 12.8v256c0 7.069 5.731 12.8 12.8 12.8h102.4c7.069 0 12.8-5.731 12.8-12.8v-256c0-7.069-5.731-12.8-12.8-12.8h-102.4zM704 243.2h76.8v230.4h-76.8v-230.4zM460.8 665.6c0-28.284 22.916-51.2 51.2-51.2s51.2 22.916 51.2 51.2c0 28.284-22.916 51.2-51.2 51.2s-51.2-22.916-51.2-51.2zM435.2 665.6c0 42.423 34.377 76.8 76.8 76.8s76.8-34.377 76.8-76.8c0-42.423-34.377-76.8-76.8-76.8s-76.8 34.377-76.8 76.8z" />
<glyph unicode="&#xe92c;" glyph-name="chart-time-weighted-return" d="M212.8 761.6c-7.069 0-12.8 5.731-12.8 12.8s5.731 12.8 12.8 12.8h598.4c7.069 0 12.8-5.731 12.8-12.8s-5.731-12.8-12.8-12.8h-598.4zM524.8 652.8c0-7.069-5.731-12.8-12.8-12.8s-12.8 5.731-12.8 12.8v230.4c0 7.069 5.731 12.8 12.8 12.8s12.8-5.731 12.8-12.8v-230.4zM524.8 166.4c0-7.069-5.731-12.8-12.8-12.8s-12.8 5.731-12.8 12.8v358.4c0 7.069 5.731 12.8 12.8 12.8s12.8-5.731 12.8-12.8v-358.4zM512 516.8c-37.114 0-67.2 30.086-67.2 67.2s30.086 67.2 67.2 67.2c37.114 0 67.2-30.086 67.2-67.2s-30.086-67.2-67.2-67.2zM512 542.4c22.975 0 41.6 18.625 41.6 41.6s-18.625 41.6-41.6 41.6c-22.975 0-41.6-18.625-41.6-41.6s18.625-41.6 41.6-41.6zM678.4 12.8c0-7.069-5.731-12.8-12.8-12.8h-307.2c-7.069 0-12.8 5.731-12.8 12.8 0 91.9 74.5 166.4 166.4 166.4s166.4-74.5 166.4-166.4zM512 153.6c-73.447 0-133.759-56.237-140.226-128h280.452c-6.467 71.763-66.779 128-140.226 128zM226.4 190.4c-89.691 0-162.4 72.709-162.4 162.4s72.709 162.4 162.4 162.4c89.691 0 162.4-72.709 162.4-162.4s-72.709-162.4-162.4-162.4zM226.4 216c75.553 0 136.8 61.247 136.8 136.8s-61.247 136.8-136.8 136.8c-75.553 0-136.8-61.247-136.8-136.8s61.247-136.8 136.8-136.8zM129.629 457.226c-2.416-6.644-9.76-10.071-16.404-7.655s-10.071 9.76-7.655 16.404l108.8 299.2c2.416 6.644 9.76 10.071 16.404 7.655s10.071-9.76 7.655-16.404l-108.8-299.2zM700.829 457.226c-2.416-6.644-9.76-10.071-16.404-7.655s-10.071 9.76-7.655 16.404l108.8 299.2c2.416 6.644 9.76 10.071 16.404 7.655s10.071-9.76 7.655-16.404l-108.8-299.2zM323.171 457.226c2.416-6.644 9.76-10.071 16.404-7.655s10.071 9.76 7.655 16.404l-108.8 299.2c-2.416 6.644-9.76 10.071-16.404 7.655s-10.071-9.76-7.655-16.404l108.8-299.2zM894.371 457.226c2.416-6.644 9.76-10.071 16.404-7.655s10.071 9.76 7.655 16.404l-108.8 299.2c-2.416 6.644-9.76 10.071-16.404 7.655s-10.071-9.76-7.655-16.404l108.8-299.2zM239.2 365.6h68.8c7.069 0 12.8-5.731 12.8-12.8s-5.731-12.8-12.8-12.8h-94.4v80.8c0 7.069 5.731 12.8 12.8 12.8s12.8-5.731 12.8-12.8v-55.2zM797.6 190.4c-89.691 0-162.4 72.709-162.4 162.4s72.709 162.4 162.4 162.4c89.691 0 162.4-72.709 162.4-162.4s-72.709-162.4-162.4-162.4zM797.6 216c75.553 0 136.8 61.247 136.8 136.8s-61.247 136.8-136.8 136.8c-75.553 0-136.8-61.247-136.8-136.8s61.247-136.8 136.8-136.8zM843.622 303.296c3.482 0 6.129-0.798 7.942-2.394s2.72-3.844 2.72-6.746c0-6.238-3.554-9.357-10.662-9.357h-95.526c-7.108 0-10.662 3.119-10.662 9.357 0 2.901 0.907 5.15 2.72 6.746s4.461 2.394 7.942 2.394h11.315v50.918h-14.362c-2.176 0-3.989 0.725-5.44 2.176s-2.176 3.191-2.176 5.222c0 2.031 0.725 3.772 2.176 5.222s3.264 2.176 5.44 2.176h14.362v28.723c0 12.911 3.953 23.174 11.859 30.79s18.677 11.424 32.314 11.424c8.704 0 17.118-1.559 25.242-4.678s15.159-7.362 21.107-12.73c2.901-2.466 4.352-5.367 4.352-8.704 0-2.611-0.725-4.823-2.176-6.637s-3.191-2.72-5.222-2.72c-1.306 0-2.539 0.254-3.699 0.762s-2.394 1.197-3.699 2.067c-6.528 4.932-12.548 8.559-18.061 10.88s-11.17 3.482-16.973 3.482c-6.963 0-12.512-2.103-16.646-6.31s-6.202-10.59-6.202-19.149v-27.2h32.64c2.176 0 3.989-0.725 5.44-2.176s2.176-3.191 2.176-5.222c0-2.031-0.725-3.772-2.176-5.222s-3.264-2.176-5.44-2.176h-32.64v-50.918h62.016z" />
<glyph unicode="&#xe92d;" glyph-name="action-arrow-down-double" d="M64 474.732c0 61.569 75.383 92.442 119.407 48.878l328.533-324.552 59.793 59.090v-0.236l268.86 265.698c44.023 43.565 119.407 12.692 119.407-48.878l-448.060-442.732-447.94 442.732zM64 794.732c0 61.569 75.383 92.442 119.407 48.878l328.533-324.552 59.793 59.090v-0.236l268.86 265.698c44.023 43.565 119.407 12.692 119.407-48.878l-448.060-442.732-447.94 442.732z" />
<glyph unicode="&#xe92e;" glyph-name="action-arrow-left-double" d="M538.732 0c61.569 0 92.442 75.383 48.878 119.407l-324.552 328.533 59.090 59.793h-0.236l265.698 268.86c43.565 44.023 12.692 119.407-48.878 119.407l-442.732-448.060 442.732-447.94zM858.732 0c61.569 0 92.442 75.383 48.878 119.407l-324.552 328.533 59.090 59.793h-0.236l265.698 268.86c43.565 44.023 12.692 119.407-48.878 119.407l-442.732-448.060 442.732-447.94z" />
<glyph unicode="&#xe92f;" glyph-name="action-arrow-right-double" d="M485.268 896c-61.569 0-92.442-75.383-48.878-119.407l324.552-328.533-59.090-59.793h0.236l-265.698-268.86c-43.565-44.023-12.692-119.407 48.878-119.407l442.732 448.060-442.732 447.94zM165.268 896c-61.569 0-92.442-75.383-48.878-119.407l324.552-328.533-59.090-59.793h0.236l-265.698-268.86c-43.565-44.023-12.692-119.407 48.878-119.407l442.732 448.060-442.732 447.94z" />
<glyph unicode="&#xe930;" glyph-name="action-arrow-top-double" d="M64 421.268c0-61.569 75.383-92.442 119.407-48.878l328.533 324.552 59.793-59.090v0.236l268.86-265.698c44.023-43.565 119.407-12.692 119.407 48.878l-448.060 442.732-447.94-442.732zM64 101.268c0-61.569 75.383-92.442 119.407-48.878l328.533 324.552 59.793-59.090v0.236l268.86-265.698c44.023-43.565 119.407-12.692 119.407 48.878l-448.060 442.732-447.94-442.732z" />
<glyph unicode="&#xe931;" glyph-name="action-expand-more" d="M56.889 631.814c0 60.607 76.58 90.998 121.302 48.114l333.748-319.481 60.742 58.167v-0.232l273.127 261.547c44.722 42.884 121.302 12.493 121.302-48.114l-455.172-435.814-455.050 435.814z" />
<glyph unicode="&#xe932;" glyph-name="action-previous" d="M695.814 903.111c60.607 0 90.998-76.58 48.114-121.302l-319.481-333.748 58.167-60.742h-0.232l261.547-273.127c42.884-44.722 12.493-121.302-48.114-121.302l-435.814 455.172 435.814 455.050z" />
<glyph unicode="&#xe933;" glyph-name="action-next" d="M328.186 903.111c-60.607 0-90.998-76.58-48.114-121.302l319.481-333.748-58.167-60.742h0.232l-261.547-273.127c-42.884-44.722-12.493-121.302 48.114-121.302l435.814 455.172-435.814 455.050z" />
<glyph unicode="&#xe934;" glyph-name="action-expand-less" d="M56.889 264.186c0-60.607 76.58-90.998 121.302-48.114l333.748 319.481 60.742-58.167v0.232l273.127-261.547c44.722-42.884 121.302-12.493 121.302 48.114l-455.172 435.814-455.050-435.814z" />
<glyph unicode="&#xe935;" glyph-name="action-clear-old" d="M557.255 448l153.373 153.373c12.497 12.497 12.497 32.758 0 45.255s-32.758 12.497-45.255 0l-153.373-153.373-153.373 153.373c-12.497 12.497-32.758 12.497-45.255 0s-12.497-32.758 0-45.255l153.373-153.373-153.373-153.373c-12.497-12.497-12.497-32.758 0-45.255s32.758-12.497 45.255 0l153.373 153.373 153.373-153.373c12.497-12.497 32.758-12.497 45.255 0s12.497 32.758 0 45.255l-153.373 153.373zM512 0c-247.424 0-448 200.576-448 448s200.576 448 448 448c247.424 0 448-200.576 448-448s-200.576-448-448-448z" />
<glyph unicode="&#xe936;" glyph-name="action-date" d="M736 768h32c70.692 0 128-57.308 128-128v-448c0-70.692-57.308-128-128-128h-512c-70.692 0-128 57.308-128 128v448c0 70.692 57.308 128 128 128h32v96c0 17.673 14.327 32 32 32s32-14.327 32-32v-96h320v96c0 17.673 14.327 32 32 32s32-14.327 32-32v-96zM832 512h-640v-320c0-35.346 28.654-64 64-64h512c35.346 0 64 28.654 64 64v320z" />
<glyph unicode="&#xe937;" glyph-name="action-download" d="M832 640h-256v256h-384v-832h100.571v-64h-164.571v960h493.714l274.286-266.667v-693.333h-164.571v64h100.571v576zM480 45.255v402.745c0 17.673 14.327 32 32 32s32-14.327 32-32v-402.745l201.373 201.373c12.497 12.497 32.758 12.497 45.255 0s12.497-32.758 0-45.255l-256-256c-12.497-12.497-32.758-12.497-45.255 0l-256 256c-12.497 12.497-12.497 32.758 0 45.255s32.758 12.497 45.255 0l201.373-201.373z" />
<glyph unicode="&#xe939;" glyph-name="action-external-link" d="M786.745 768h-114.745l-64 64h288v-288l-64 64v114.745l-381.539-381.539c-12.497-12.497-32.758-12.497-45.255 0s-12.497 32.758 0 45.255l381.539 381.539zM832 128v223.93c0 17.675 7.165 33.676 18.748 45.258l45.252-45.258v-287.93h-768v768h288l45.252-45.258c-11.581-11.58-27.58-18.742-45.252-18.742h-224v-640h640z" />
<glyph unicode="&#xe93a;" glyph-name="action-filter" d="M128 832h768l-320-384v-320l-128-64v384z" />
<glyph unicode="&#xe93b;" glyph-name="action-goal" d="M512 32c-229.75 0-416 186.25-416 416s186.25 416 416 416c229.75 0 416-186.25 416-416s-186.25-416-416-416zM512 96c194.404 0 352 157.596 352 352s-157.596 352-352 352c-194.404 0-352-157.596-352-352s157.596-352 352-352zM241.863 480c14.608 124.646 113.492 223.53 238.137 238.137v177.863c0 17.673 14.327 32 32 32s32-14.327 32-32v-177.863c124.646-14.608 223.53-113.492 238.137-238.137h177.863c17.673 0 32-14.327 32-32s-14.327-32-32-32h-177.863c-14.608-124.646-113.492-223.53-238.137-238.137v-177.863c0-17.673-14.327-32-32-32s-32 14.327-32 32v177.863c-124.646 14.608-223.53 113.492-238.137 238.137h-177.863c-17.673 0-32 14.327-32 32s14.327 32 32 32h177.863zM512 240c114.875 0 208 93.125 208 208s-93.125 208-208 208c-114.875 0-208-93.125-208-208s93.125-208 208-208zM512 384c-35.346 0-64 28.654-64 64s28.654 64 64 64c35.346 0 64-28.654 64-64s-28.654-64-64-64z" />
<glyph unicode="&#xe93c;" glyph-name="action-warning" horiz-adv-x="1065" d="M125.051-64h814.858c73.475 0 105.892 53.047 72.424 118.484l-419.15 818.188c-33.542 65.441-87.864 65.441-121.404 0.004l-419.146-818.18c-33.522-65.441-1.101-118.496 72.417-118.496zM508.232 853.997c18.314 35.73 30.183 35.73 48.498-0.004l419.142-818.172c19.527-38.18 6.889-58.861-35.963-58.861h-814.858c-42.891 0-55.524 20.673-35.962 58.861l419.143 818.175zM532.48 591.36c11.311 0 20.48-9.169 20.48-20.48v-286.72c0-11.311-9.169-20.48-20.48-20.48s-20.48 9.169-20.48 20.48v286.72c0 11.311 9.169 20.48 20.48 20.48zM573.44 140.8c0-22.622-18.338-40.96-40.96-40.96s-40.96 18.338-40.96 40.96c0 22.622 18.338 40.96 40.96 40.96s40.96-18.338 40.96-40.96z" />
<glyph unicode="&#xe93d;" glyph-name="action-info-solid" d="M512 896c247.424 0 448-200.576 448-448s-200.576-448-448-448c-247.424 0-448 200.576-448 448s200.576 448 448 448zM512.395 160c9.482 0 17.119 2.55 22.914 7.649s8.691 12.749 8.691 22.948v322.805c0 9.689-2.897 17.211-8.691 22.566s-13.432 8.032-22.914 8.032c-9.482 0-17.251-2.677-23.309-8.032s-9.086-12.876-9.086-22.566v-322.805c0-9.689 3.029-17.211 9.086-22.566s13.827-8.032 23.309-8.032zM512 608c14.222 0 25.778 4.436 34.667 13.307s13.333 20.594 13.333 35.168c0 13.941-4.444 25.346-13.333 34.218s-20.444 13.307-34.667 13.307c-14.222 0-25.778-4.436-34.667-13.307s-13.333-20.277-13.333-34.218c0-14.574 4.444-26.297 13.333-35.168s20.444-13.307 34.667-13.307z" />
</font>
</defs>
</svg>
